<svg width="30" height="31" viewBox="0 0 30 31" fill="none" xmlns="http://www.w3.org/2000/svg">
<path d="M22.6764 9.00004H8.32313C7.94178 9.00004 7.5993 9.16511 7.35645 9.42504L15.1638 14.7973C15.4531 14.9965 15.8411 14.9965 16.1305 14.8001L23.7775 9.59764C23.5432 9.2381 23.1372 9 22.6761 9L22.6764 9.00004Z" fill="currentColor"/>
<path d="M15.6507 16.5983C15.1574 16.5983 14.6622 16.4503 14.2325 16.1543L7 11.1777V20.3038C7 21.0323 7.59291 21.6271 8.32337 21.6271H22.6766C23.4052 21.6271 24 21.0342 24 20.3038V11.4395L17.0597 16.1609C16.6318 16.4531 16.1412 16.5983 15.6507 16.5983Z" fill="currentColor"/>
</svg>
