<svg width="18" height="21" viewBox="0 0 18 21" fill="none" xmlns="http://www.w3.org/2000/svg">
<path d="M8.58046 4.92188C6.84823 4.92188 5.4375 6.33255 5.4375 8.06483C5.4375 9.79712 6.84817 11.2078 8.58046 11.2078C10.3127 11.2078 11.7234 9.79712 11.7234 8.06483C11.7234 6.33255 10.3127 4.92188 8.58046 4.92188ZM8.58046 10.0992C7.45775 10.0992 6.54618 9.18757 6.54618 8.06489C6.54618 6.94218 7.45778 6.03061 8.58046 6.03061C9.70314 6.03061 10.6147 6.94221 10.6147 8.06489C10.6147 9.1876 9.70314 10.0992 8.58046 10.0992Z" fill="currentColor"/>
<path d="M14.3527 2.23501C12.5458 0.588314 10.2009 -0.190109 7.74864 0.0394049C4.01783 0.391256 0.903139 3.18569 0.171168 6.83529C-1.04031 12.884 4.49204 18.1835 6.92576 20.1843C7.37506 20.5524 7.9207 20.7354 8.46636 20.7354C9.02933 20.7354 9.59123 20.5416 10.0492 20.1529C14.7664 16.1557 17.1577 12.2625 17.1577 8.58158C17.1609 6.17161 16.138 3.85999 14.3527 2.23501ZM9.3337 19.3084C8.84003 19.7274 8.12222 19.735 7.62963 19.3279C5.35173 17.4571 0.168008 12.5126 1.26056 7.05514C1.895 3.88197 4.60806 1.4513 7.85717 1.14393C8.10402 1.12228 8.3476 1.11037 8.5912 1.11037C10.4588 1.11037 12.2192 1.78702 13.6102 3.05588C15.1628 4.46982 16.0548 6.48459 16.0548 8.58266C16.0527 11.9227 13.7909 15.5311 9.3337 19.3084Z" fill="currentColor"/>
</svg>
