<svg width="30" height="33" viewBox="0 0 30 33" fill="none" xmlns="http://www.w3.org/2000/svg">
<path d="M22.2627 20.2234L21.1557 18.4165V18.4174C20.5431 17.4205 19.2327 17.1041 18.2286 17.7123L17.3142 18.2649C17.0434 18.4324 16.6928 18.3962 16.4619 18.1776C14.998 16.7471 13.9149 14.978 13.3085 13.0303C13.2224 12.7262 13.352 12.4028 13.6255 12.2406L14.5399 11.6888L14.539 11.6879C15.544 11.0798 15.8618 9.7788 15.2492 8.7819L14.1413 6.97501C13.5287 5.97813 12.2183 5.66259 11.2142 6.26988L9.44842 7.33197C8.81276 7.71098 8.42392 8.39319 8.42481 9.12916C8.42392 12.2563 9.28774 15.3237 10.9212 17.9971C12.5627 20.6493 14.8957 22.8114 17.6737 24.255C17.9853 24.4172 18.3324 24.5027 18.6849 24.5036C19.0737 24.5036 19.4554 24.3969 19.7875 24.196L21.5515 23.1294C22.5556 22.5213 22.8734 21.2203 22.2617 20.2234L22.2627 20.2234Z" fill="currentColor"/>
</svg>
