<svg width="17" height="17" viewBox="0 0 17 17" fill="none" xmlns="http://www.w3.org/2000/svg">
<path d="M8.5 0C3.81282 0 0 3.81282 0 8.5C0 13.1872 3.81282 17 8.5 17C13.1872 17 17 13.1872 17 8.5C17 3.81282 13.1872 0 8.5 0ZM8.5 15.7313C4.51261 15.7313 1.26866 12.4874 1.26866 8.5C1.26866 4.51261 4.51261 1.26866 8.5 1.26866C12.4874 1.26866 15.7313 4.51261 15.7313 8.5C15.7313 12.4874 12.4874 15.7313 8.5 15.7313ZM9.13433 8.23739L11.7698 10.8729L10.8728 11.7699L7.86562 8.76266V4.31348H9.13428L9.13433 8.23739Z" fill="currentColor"/>
</svg>
