<svg width="30" height="32" viewBox="0 0 30 32" fill="none" xmlns="http://www.w3.org/2000/svg">
<path fill-rule="evenodd" clip-rule="evenodd" d="M22.0138 6.72324L9.11903 20.5086L9.10273 22.7274C9.09882 23.3031 9.42752 23.8218 9.93035 24.0325C10.4325 24.2432 11.0045 24.102 11.369 23.6772L13.2369 21.5029L17.9951 23.1821C18.3532 23.308 18.7451 23.2628 19.0693 23.0583C19.394 22.8539 19.619 22.509 19.6875 22.1141L22.184 7.70156C22.2434 7.35807 22.1788 7.01041 22.0138 6.72324ZM8.95796 19.6958L21.5449 6.2393C21.1575 6.00498 20.6801 5.99664 20.2823 6.2254C16.9966 8.11527 7.87207 13.3649 4.59881 15.2478C4.15859 15.5009 3.89318 16.0009 3.91535 16.5342C3.93753 17.0668 4.24404 17.5389 4.70382 17.7496L8.95796 19.6958Z" fill="currentColor"/>
</svg>
