<svg width="30" height="31" viewBox="0 0 30 31" fill="none" xmlns="http://www.w3.org/2000/svg">
<path d="M10.6641 22.6681C11.9888 23.3893 13.4817 23.7675 15 23.7675C19.9617 23.7675 24 19.7814 24 14.8837C24 9.98609 19.9617 6 15 6C10.0383 6 6 9.98609 6 14.8837C6 16.4569 6.41984 17.9969 7.22079 19.3519L6.07542 24L10.6641 22.6681ZM11.142 10.7325C11.3326 10.5594 11.5802 10.4669 11.839 10.4669H12.1131C12.4759 10.4669 12.7989 10.6912 12.9223 11.0262L13.4827 12.5511C13.5347 12.6949 13.5092 12.8548 13.4124 12.9755L12.9691 13.5217C12.7938 13.735 12.747 14.0267 12.8489 14.2811C13.3859 15.6149 14.9827 16.5524 15.8173 16.9648C16.12 17.1137 16.4827 17.0573 16.7222 16.823L17.2124 16.3392C17.3296 16.2235 17.5048 16.1822 17.6638 16.2305L19.1505 16.6993C19.5082 16.8129 19.7508 17.1398 19.7508 17.51V17.8831C19.7508 18.1557 19.6407 18.4182 19.445 18.6114C17.997 20.0226 15.5941 18.9875 14.0372 18.0451C12.9153 17.3651 11.937 16.4719 11.2094 15.3877C9.44852 12.7643 10.5184 11.2938 11.142 10.7325Z" fill="currentColor"/>
</svg>
