<svg width="60" height="54" viewBox="0 0 60 54" fill="none" xmlns="http://www.w3.org/2000/svg">
<g id="Group 30">
<path id="Vector" d="M41.5557 16.3834C41.01 16.3834 40.4707 16.3834 39.9444 16.4614C39.2164 12.5444 37.3432 8.93131 34.5616 6.07906C31.78 3.22682 28.215 1.26356 24.3175 0.437607C20.42 -0.38835 16.3651 -0.039904 12.6656 1.43887C8.9662 2.91765 5.78841 5.46033 3.53419 8.74531C1.27997 12.0303 0.0505828 15.91 0.00152751 19.8938C-0.0475278 23.8775 1.08595 27.7863 3.2586 31.1258C5.43125 34.4653 8.54547 37.0855 12.2074 38.6549C15.8693 40.2243 19.9144 40.6725 23.831 39.9428C24.7812 43.2363 26.6304 46.1998 29.171 48.501C31.7116 50.8021 34.8432 52.3498 38.2144 52.9705C41.5856 53.5911 45.063 53.26 48.2565 52.0145C51.4501 50.769 54.2334 48.6582 56.2942 45.919C58.355 43.1798 59.6118 39.9206 59.9235 36.507C60.2353 33.0933 59.5897 29.6604 58.0592 26.5932C56.5286 23.526 54.1737 20.946 51.2586 19.1426C48.3435 17.3392 44.9836 16.3837 41.5557 16.3834ZM15.6249 1.85536C13.8706 3.39523 12.3632 5.85122 11.2716 8.86599C9.64184 8.44129 8.06254 7.84225 6.56107 7.07922C9.02869 4.51731 12.1711 2.70621 15.6249 1.85536ZM5.69043 8.07331C7.33907 8.94725 9.08329 9.6275 10.8883 10.1005C10.0171 13.1573 9.56038 16.3172 9.53036 19.4956H1.31772C1.46019 15.307 2.9994 11.2863 5.69043 8.07331ZM5.69043 32.2174C2.9994 29.0044 1.46019 24.9837 1.31772 20.7951H9.53036C9.56249 23.9738 10.0214 27.1337 10.8948 30.1903C9.08756 30.6628 7.34113 31.343 5.69043 32.2174ZM6.58706 33.2115C8.08025 32.4502 9.65075 31.8512 11.2716 31.4248C12.3632 34.4395 13.8706 36.8955 15.6249 38.4354C12.1804 37.58 9.04757 35.7692 6.58706 33.2115ZM19.4908 38.9357C16.6449 38.5393 14.15 35.5441 12.5711 31.1389C14.8453 30.6436 17.1635 30.378 19.4908 30.3462V38.9357ZM19.4908 29.0272C17.0267 29.0626 14.5729 29.3522 12.1683 29.8914C11.3134 26.9337 10.8631 23.8737 10.8298 20.7951H19.4908V29.0272ZM19.4908 19.4956H10.8298C10.8631 16.417 11.3134 13.3571 12.1683 10.3994C14.5733 10.9342 17.0272 11.2194 19.4908 11.2505V19.4956ZM19.4908 9.96404C17.1635 9.93223 14.8453 9.66667 12.5711 9.17136C14.15 4.74667 16.6449 1.7514 19.4908 1.37455V9.96404ZM34.5971 8.07331C36.6529 10.5303 38.0483 13.471 38.6514 16.6173C36.0264 17.0332 33.5233 18.0153 31.3159 19.4956H30.7637C30.7327 16.3164 30.2716 13.156 29.3927 10.1005C31.2002 9.62859 32.9467 8.9483 34.5971 8.07331ZM33.7005 7.07922C32.199 7.84225 30.6197 8.44129 28.9899 8.86599C27.9243 5.82523 26.4299 3.39523 24.6627 1.85536C28.1071 2.71073 31.24 4.52152 33.7005 7.07922ZM20.7902 1.35506C23.6426 1.7514 26.1376 4.74667 27.7164 9.15187C25.44 9.64718 23.1197 9.91273 20.7902 9.94454V1.35506ZM20.7902 11.2635C23.2565 11.2285 25.7125 10.9389 28.1192 10.3994C28.9764 13.3568 29.4288 16.4167 29.4642 19.4956H20.7902V11.2635ZM23.3892 37.8376C22.6303 38.4187 21.7358 38.7966 20.7902 38.9357V30.3267C21.7519 30.3267 22.7005 30.3917 23.6296 30.4826C23.0365 32.8898 22.9436 35.3931 23.3567 37.8376H23.3892ZM20.7902 29.0272V20.7951H29.4642C29.4674 20.8384 29.4674 20.8818 29.4642 20.925C26.9128 23.1447 25.0184 26.021 23.9869 29.2416C22.9669 29.1052 21.8753 29.0467 20.7902 29.0272ZM41.5557 51.9823C38.1627 51.9836 34.8454 50.9785 32.0236 49.0942C29.2018 47.2099 27.0023 44.5311 25.7032 41.3965C24.4041 38.262 24.0639 34.8125 24.7255 31.4846C25.3872 28.1566 27.021 25.0997 29.4203 22.7004C31.8195 20.3011 34.8765 18.6673 38.2045 18.0057C41.5324 17.344 44.9819 17.6842 48.1164 18.9833C51.251 20.2824 53.9298 22.4819 55.8141 25.3037C57.6984 28.1255 58.7035 31.4428 58.7022 34.8359C58.6971 39.3818 56.8889 43.7401 53.6744 46.9546C50.46 50.169 46.1017 51.9772 41.5557 51.9823Z" fill="black"/>
<path id="Vector_2" d="M42.9976 31.5275C43.4169 30.1775 43.4613 28.7388 43.126 27.3654C42.7906 25.992 42.0882 24.7357 41.0938 23.7307C39.8962 22.5284 38.3328 21.7581 36.6497 21.5411C36.3353 21.4924 36.0137 21.5448 35.731 21.6908C35.4484 21.8368 35.2195 22.0688 35.0773 22.3533C34.9292 22.6668 34.8839 23.0191 34.9481 23.3599C35.0123 23.7007 35.1826 24.0124 35.4347 24.2505L36.7796 25.5955C37.0392 25.84 37.2267 26.151 37.3218 26.4947C37.4169 26.8384 37.4159 27.2015 37.3189 27.5447L36.6692 29.4939C36.5962 29.7044 36.4746 29.8946 36.3143 30.0493C36.154 30.204 35.9595 30.3186 35.7465 30.384L33.6609 31.0338C33.3166 31.1292 32.9527 31.1281 32.6089 31.0307C32.2651 30.9333 31.9548 30.7433 31.7117 30.4815L30.4382 29.2405C30.2012 28.9867 29.8894 28.8152 29.5482 28.7509C29.2069 28.6866 28.8541 28.733 28.541 28.8831C28.2553 29.0243 28.0219 29.2528 27.8747 29.5355C27.7275 29.8182 27.6742 30.1404 27.7223 30.4555C27.9434 32.1369 28.7157 33.6975 29.9184 34.8932C30.9186 35.8954 32.1727 36.6063 33.5463 36.9498C34.9199 37.2932 36.3611 37.256 37.7152 36.8424L46.3567 45.3864C46.704 45.7332 47.1161 46.0083 47.5697 46.1958C48.0233 46.3834 48.5093 46.4797 49.0002 46.4794C49.491 46.4791 49.9769 46.3822 50.4303 46.1941C50.8836 46.006 51.2954 45.7304 51.6423 45.3831C51.9891 45.0359 52.2642 44.6237 52.4517 44.1701C52.6393 43.7165 52.7356 43.2305 52.7353 42.7397C52.735 42.2488 52.6381 41.7629 52.45 41.3096C52.2618 40.8562 51.9863 40.4444 51.639 40.0975L42.9976 31.5275ZM50.6969 44.4703C50.239 44.9269 49.6186 45.1834 48.9719 45.1834C48.3251 45.1834 47.7048 44.9269 47.2468 44.4703L38.339 35.6014C38.2543 35.5201 38.1491 35.4633 38.0347 35.437C37.9203 35.4107 37.8009 35.4158 37.6892 35.4519C36.529 35.8798 35.2707 35.9678 34.0623 35.7053C32.8538 35.4429 31.7453 34.8411 30.867 33.9705C29.8705 32.9745 29.231 31.6771 29.0478 30.2801C29.0478 30.1566 29.0478 30.0786 29.1452 30.0397C29.2155 30.0135 29.2922 30.0101 29.3645 30.0299C29.4368 30.0497 29.501 30.0918 29.5481 30.1501L30.8475 31.4496C31.2598 31.8749 31.7793 32.1809 32.3511 32.3353C32.923 32.4897 33.5259 32.4867 34.0962 32.3267L36.1819 31.677C36.5918 31.5545 36.9663 31.3354 37.2738 31.038C37.5814 30.7407 37.813 30.3738 37.9491 29.9682L38.5989 28.019C38.7806 27.4412 38.7972 26.8242 38.6468 26.2375C38.4964 25.6509 38.185 25.1179 37.7477 24.6988L36.4093 23.3604C36.3487 23.3136 36.3052 23.2482 36.2852 23.1743C36.2653 23.1004 36.27 23.022 36.2988 22.9511C36.3216 22.9113 36.3569 22.8802 36.3992 22.8626C36.4415 22.845 36.4884 22.8418 36.5327 22.8536C37.9316 23.0352 39.2301 23.6776 40.2232 24.6794C41.0964 25.5601 41.6992 26.6723 41.9606 27.8846C42.2219 29.097 42.1309 30.3588 41.6981 31.5211C41.6581 31.6285 41.6473 31.7446 41.6667 31.8575C41.6861 31.9705 41.735 32.0763 41.8086 32.1643L50.7099 41.0137C51.1637 41.4753 51.4169 42.0973 51.4144 42.7446C51.412 43.3919 51.1541 44.0121 50.6969 44.4703Z" fill="black"/>
</g>
</svg>
