<svg width="60" height="67" viewBox="0 0 60 67" fill="none" xmlns="http://www.w3.org/2000/svg">
<path id="Vector" fill-rule="evenodd" clip-rule="evenodd" d="M19.5786 3.87931C22.1852 3.87931 24.5543 4.91123 26.271 6.57124C27.9877 8.23124 29.055 10.5219 29.055 13.0423V17.3554C29.055 19.8758 27.9878 22.1666 26.271 23.8265C24.5542 25.4865 22.1852 26.5185 19.5786 26.5185C16.972 26.5185 14.6029 25.4865 12.8862 23.8265C11.1694 22.1665 10.1022 19.8758 10.1022 17.3554V13.0423C10.1022 10.5219 11.1694 8.23117 12.8862 6.57124C14.6029 4.90847 16.972 3.87931 19.5786 3.87931ZM40.2227 17.1895C39.8365 17.1895 39.5217 16.8852 39.5217 16.5117C39.5217 16.1382 39.8365 15.8339 40.2227 15.8339H53.4447C53.831 15.8339 54.1457 16.1382 54.1457 16.5117C54.1457 16.8852 53.831 17.1895 53.4447 17.1895H40.2227ZM40.2227 13.2443C39.8365 13.2443 39.5217 12.94 39.5217 12.5665C39.5217 12.193 39.8365 11.8887 40.2227 11.8887H50.2115C50.5978 11.8887 50.9125 12.193 50.9125 12.5665C50.9125 12.94 50.5978 13.2443 50.2115 13.2443H40.2227ZM40.2227 9.16358C39.8365 9.16358 39.5217 8.85925 39.5217 8.48576C39.5217 8.11227 39.8365 7.80794 40.2227 7.80794H53.8681C54.2543 7.80794 54.5691 8.11227 54.5691 8.48576C54.5691 8.85925 54.2543 9.16358 53.8681 9.16358H40.2227ZM47.25 23.301C50.383 23.301 53.2214 22.0726 55.2757 20.0862C57.3301 18.0997 58.6005 15.358 58.6005 12.3287C58.6005 9.29935 57.3301 6.5548 55.2757 4.56837C53.2214 2.58193 50.3859 1.35354 47.25 1.35354C44.117 1.35354 41.2786 2.58193 39.2242 4.56837C37.1698 6.5548 35.8994 9.29652 35.8994 12.3287C35.8994 13.9693 36.2714 15.5241 36.9352 16.9185C37.6277 18.371 38.6377 19.6492 39.8794 20.6756C40.1169 20.872 40.1856 21.1929 40.0654 21.4586L38.5747 25.3319L45.4073 23.2292C45.5074 23.1988 45.6104 23.1905 45.7106 23.2043H45.7163C45.9595 23.2347 46.2142 23.2624 46.4803 23.279C46.7235 23.2928 46.981 23.301 47.25 23.301ZM56.2661 21.0462C58.5722 18.8164 60 15.7343 60 12.3283C60 8.9254 58.5723 5.84344 56.2661 3.61046C53.9599 1.3806 50.7725 0 47.25 0C43.7306 0 40.5433 1.38053 38.2339 3.61046C35.9278 5.84032 34.5 8.92511 34.5 12.3283C34.5 14.1682 34.9177 15.9139 35.6674 17.4853C36.3741 18.9682 37.3784 20.2933 38.6059 21.3889L36.769 26.1614C36.6345 26.5099 36.8176 26.9001 37.1781 27.0301C37.3383 27.0882 37.5043 27.0854 37.6531 27.0329L45.6788 24.5623C45.9163 24.5899 46.1509 24.6121 46.3798 24.6259C46.6774 24.6453 46.9664 24.6536 47.2439 24.6536C50.7719 24.6563 53.9593 23.2758 56.2651 21.0459L56.2661 21.0462ZM35.3677 46.0121C36.4407 45.4892 37.2905 44.781 37.8771 43.8071C38.6009 42.6009 38.9443 40.9658 38.8327 38.7415C38.7526 38.1135 38.847 37.5989 39.0702 37.2115C39.2762 36.8546 39.5824 36.6111 39.9629 36.495C40.3092 36.3871 40.6983 36.3898 41.1074 36.5088C41.7455 36.6942 42.4723 37.1783 43.1647 37.9917C44.8185 39.9311 44.6039 41.9065 44.1661 44.1225C44.3378 44.1142 44.5181 44.1059 44.704 44.0948C46.6182 43.998 49.0045 43.8763 50.5009 44.5541C51.8886 45.1821 52.5381 46.3386 51.5968 48.4302C51.7084 49.072 51.7198 49.6503 51.6311 50.1648C51.5453 50.6628 51.365 51.0999 51.0904 51.4735C51.1447 52.0959 51.1075 52.6714 50.933 53.2413C50.7556 53.8223 50.438 54.3784 49.9373 54.9345C49.9544 55.6289 49.8056 56.3787 49.4394 56.9762C49.0531 57.6015 48.4522 58.0607 47.5796 58.1548C47.5538 58.1576 47.5281 58.1576 47.5023 58.1576V58.1604H37.3245C37.2816 58.1604 37.2358 58.1576 37.1958 58.1493C36.449 58.0635 35.9111 57.8367 35.4619 57.513C35.4132 57.477 35.3646 57.441 35.3159 57.4023C35.2358 57.5406 35.1357 57.6651 35.0212 57.7786C34.6951 58.094 34.243 58.2904 33.7451 58.2904H30.406C29.9082 58.2904 29.4561 58.094 29.1299 57.7786C28.8037 57.4632 28.6006 57.026 28.6006 56.5446L28.5949 46.7729C28.5949 46.2915 28.798 45.8544 29.1242 45.539C29.4504 45.2236 29.9025 45.0271 30.4003 45.0271H33.7394C34.2372 45.0271 34.6893 45.2236 35.0155 45.539C35.1586 45.6773 35.279 45.835 35.3677 46.0121ZM35.548 55.6649C35.8026 55.9775 36.0373 56.2486 36.2947 56.434C36.5551 56.6221 36.8756 56.7549 37.3448 56.8075H47.4647C47.8195 56.7577 48.0713 56.5585 48.2373 56.2901C48.4948 55.8724 48.5749 55.2997 48.5291 54.7795C48.5034 54.5831 48.5635 54.3784 48.7151 54.2235C49.1758 53.7531 49.4504 53.3104 49.5906 52.8595C49.7308 52.403 49.7394 51.9106 49.6679 51.3517H49.6708C49.6479 51.1663 49.7022 50.9699 49.8424 50.8205C50.0513 50.5937 50.1858 50.3004 50.2487 49.9407C50.3203 49.5368 50.2945 49.0471 50.1801 48.4772H50.1829C50.1543 48.3416 50.1715 48.1978 50.2344 48.0622C50.8696 46.7536 50.5978 46.0896 49.9083 45.777C48.7323 45.243 46.5348 45.3537 44.7752 45.445C44.2773 45.4699 43.811 45.4948 43.3732 45.5003C43.3074 45.5058 43.2415 45.5031 43.1757 45.492C42.7952 45.4201 42.5491 45.0659 42.6235 44.698L42.6521 44.5624C43.0985 42.3906 43.4904 40.4955 42.0856 38.8494C41.5849 38.2601 41.1013 37.9198 40.7093 37.8063C40.572 37.7676 40.4661 37.7593 40.3917 37.7814C40.3517 37.7925 40.3202 37.8229 40.2916 37.8672C40.2086 38.0083 40.1829 38.2462 40.2258 38.581H40.2229C40.2258 38.5975 40.2258 38.6114 40.2287 38.628C40.3631 41.1539 39.954 43.0463 39.0899 44.4849C38.2744 45.8433 37.0698 46.7729 35.5505 47.423L35.548 55.6649ZM33.7396 46.3804H30.4006C30.289 46.3804 30.1888 46.4247 30.1145 46.4966C30.0401 46.5685 29.9943 46.6654 29.9943 46.7733V56.545C29.9943 56.6529 30.0401 56.7497 30.1145 56.8217C30.1888 56.8936 30.289 56.9379 30.4006 56.9379H33.7396C33.8512 56.9379 33.9514 56.8936 34.0258 56.8217C34.1002 56.7497 34.1459 56.6529 34.1459 56.545V46.7733C34.1459 46.6654 34.1002 46.5685 34.0258 46.4966C33.9514 46.4247 33.8512 46.3804 33.7396 46.3804ZM40.043 65.0443C44.6954 65.0443 48.9074 63.2211 51.9545 60.2746C55.0018 57.3281 56.8873 53.2557 56.8873 48.757C56.8873 44.2585 55.0018 40.1857 51.9545 37.2394C48.9073 34.2931 44.6955 32.4698 40.043 32.4698C35.3906 32.4698 31.1785 34.2929 28.1314 37.2394C25.0842 40.1859 23.1986 44.2583 23.1986 48.757C23.1986 53.2556 25.0842 57.3283 28.1314 60.2746C31.1787 63.2211 35.3904 65.0443 40.043 65.0443ZM52.9441 61.2319C56.246 58.0392 58.2889 53.6295 58.2889 48.7574C58.2889 43.8854 56.246 39.4758 52.9441 36.283C49.6423 33.0903 45.0817 31.1149 40.043 31.1149C37.5422 31.1149 35.1617 31.6019 32.9929 32.4817C31.2218 31.1011 29.196 30.0055 27.0358 29.2447C24.7439 28.4369 22.3033 28.0081 19.8569 28.0053V28.0025H19.8455C14.9012 28.0025 9.95116 29.7621 6.2375 32.8385C2.50355 35.9316 0.0114404 40.3552 0.00858372 45.6615L0 45.6587V51.8393C0 52.5476 0.297569 53.1894 0.778258 53.6542C1.25895 54.119 1.92275 54.4067 2.65523 54.4067L22.753 54.4095C23.66 57.0074 25.1793 59.3368 27.1421 61.232C30.4411 64.4246 35.0045 66.4 40.0432 66.4C45.079 66.4 49.6421 64.4246 52.9441 61.2319ZM22.3405 53.0537C21.9857 51.6787 21.794 50.2373 21.794 48.7572C21.794 43.8852 23.8369 39.4755 27.1388 36.2827C28.4378 35.0267 29.9314 33.9588 31.5709 33.126C30.0515 32.0277 28.352 31.1479 26.5551 30.5143C24.412 29.7591 22.1287 29.3552 19.8512 29.3552V29.3579H19.8398C15.2217 29.3579 10.601 30.9985 7.1386 33.8675C3.69654 36.7198 1.39898 40.7895 1.39612 45.6613H1.39898V51.842C1.39898 52.1767 1.53919 52.4783 1.76809 52.6968C1.99412 52.9154 2.30886 53.0537 2.65219 53.0537H8.19441L8.19727 44.4414C8.19727 44.0679 8.51201 43.7635 8.89827 43.7635C9.28454 43.7635 9.59928 44.0679 9.59928 44.4414V53.0537L22.3405 53.0537ZM19.5794 5.2325C17.3591 5.2325 15.3419 6.11229 13.8769 7.52603C12.4148 8.93977 11.5049 10.893 11.5049 13.0399V17.353C11.5049 19.4999 12.4148 21.4504 13.8769 22.8669C15.3419 24.2807 17.359 25.1604 19.5794 25.1604C21.7997 25.1604 23.8169 24.2807 25.2819 22.8669C26.744 21.4504 27.6539 19.5 27.6539 17.353V13.0399C27.6539 10.8931 26.744 8.94254 25.2819 7.52603C23.8169 6.11229 21.7997 5.2325 19.5794 5.2325Z" fill="black"/>
</svg>
