<svg width="75" height="76" viewBox="0 0 75 76" fill="none" xmlns="http://www.w3.org/2000/svg">
<path d="M73.0418 29.7784H66.9552C66.3046 27.4458 65.3733 25.1697 64.1744 23.0135L68.4776 18.6778C69.1216 18.0289 69.1216 16.9641 68.4776 16.3186L59.1278 6.89794C58.4838 6.24907 57.4269 6.24907 56.7863 6.89794L52.4731 11.2337C50.343 10.0324 48.084 9.08745 45.759 8.4386V2.2993C45.759 1.38092 45.0159 0.628906 44.1012 0.628906H30.8774C29.9659 0.628906 29.2195 1.37761 29.2195 2.2993V8.43195C26.9044 9.08748 24.6455 10.0259 22.5055 11.2338L18.2023 6.89802C17.5583 6.24915 16.5015 6.24915 15.8608 6.89802L6.51089 16.3187C5.86689 16.9675 5.86689 18.0323 6.51089 18.6779L10.8141 23.0237C9.62183 25.1799 8.68396 27.4526 8.03998 29.7886H1.95668C1.0452 29.7886 0.298828 30.5373 0.298828 31.459V44.7828C0.298828 45.7012 1.04191 46.4532 1.95668 46.4532H8.04328C8.69388 48.7858 9.62521 51.0619 10.8241 53.2181L6.52087 57.5538C5.87687 58.2027 5.87687 59.2675 6.52087 59.913L15.8707 69.3336C16.5147 69.9825 17.5716 69.9825 18.2122 69.3336L22.5254 64.9979C24.6555 66.1992 26.9145 67.1441 29.2395 67.793V73.9356C29.2395 74.854 29.9826 75.606 30.8974 75.606H44.1211C45.0326 75.606 45.779 74.8573 45.779 73.9356V67.803C48.0941 67.1474 50.353 66.2091 52.493 65.0011L56.7962 69.3369C57.4402 69.9858 58.497 69.9858 59.1377 69.3369L68.4876 59.9163C69.1316 59.2674 69.1316 58.2026 68.4876 57.5571L64.1844 53.2112C65.3767 51.065 66.3145 48.7889 66.9585 46.4464H73.055C73.9665 46.4464 74.7129 45.6977 74.7129 44.776V31.4521C74.7129 30.5338 73.9698 29.7817 73.055 29.7817L73.0418 29.7784ZM73.0418 44.7727H66.9453C66.2089 44.7727 65.5517 45.2752 65.3568 45.9906C64.7392 48.2068 63.8608 50.353 62.728 52.3895C62.3647 53.0383 62.4737 53.8636 62.9988 54.3826L67.302 58.7284L57.9521 68.1491L53.6489 63.8133C53.1238 63.2842 52.3147 63.1744 51.6707 63.5405C49.6495 64.6818 47.5094 65.5669 45.3199 66.1892C44.6098 66.3855 44.1111 67.051 44.1111 67.7897V73.9324H30.8874V67.7897C30.8874 67.0477 30.3887 66.3856 29.6786 66.1892C27.4791 65.5669 25.349 64.6819 23.3278 63.5405C23.0735 63.394 22.7961 63.3275 22.5154 63.3275C22.0828 63.3275 21.6601 63.4972 21.3496 63.8133L17.0364 68.1491L7.68655 58.7284L11.9897 54.3927C12.5149 53.8636 12.6238 53.0484 12.2606 52.3995C11.1278 50.3631 10.2493 48.2068 9.6317 46.0007C9.43685 45.2852 8.77635 44.7828 8.04318 44.7828L1.95658 44.7794V31.4556H8.05307C8.78953 31.4556 9.44672 30.9532 9.64159 30.2377C10.2592 28.0316 11.1376 25.8753 12.2704 23.8389C12.6337 23.19 12.5247 22.3648 11.9996 21.8457L7.69645 17.4999L17.0463 8.07928L21.3495 12.415C21.8746 12.9441 22.6837 13.0539 23.3277 12.6879C25.3489 11.5466 27.489 10.6614 29.6785 10.0391C30.3886 9.84282 30.8873 9.17733 30.8873 8.4386V2.29931H44.111V8.44192C44.111 9.18396 44.6097 9.84612 45.3198 10.0425C47.5193 10.6647 49.6494 11.5498 51.6706 12.6912C52.3146 13.0572 53.1336 12.9474 53.6488 12.4184L57.9619 8.0826L67.3118 17.5032L63.0086 21.839C62.4835 22.3681 62.3745 23.1833 62.7378 23.8322C63.8706 25.8686 64.7491 28.0249 65.3667 30.231C65.5615 30.9464 66.222 31.4489 66.9552 31.4489H73.0517V44.7727L73.0418 44.7727Z" fill="black"/>
<path d="M37.5002 14.7891C24.7322 14.7891 14.3525 25.2507 14.3525 38.1119C14.3525 50.9766 24.7356 61.4348 37.5002 61.4348C50.2683 61.4348 60.6479 50.9732 60.6479 38.1119C60.6479 25.2472 50.2649 14.7891 37.5002 14.7891ZM37.5002 59.7677C25.647 59.7677 16.0071 50.0583 16.0071 38.1119C16.0071 26.169 25.6436 16.4561 37.5002 16.4561C49.3535 16.4561 58.9934 26.1655 58.9934 38.1119C58.9934 50.0549 49.3569 59.7677 37.5002 59.7677Z" fill="black"/>
<path d="M49.3528 28.9424C48.8277 28.4133 48.1342 28.1172 47.3911 28.1172C46.6646 28.1172 45.9446 28.4067 45.403 28.9424L32.8302 41.7636L27.9259 36.7723C27.4008 36.2266 26.7007 35.9304 25.9477 35.9304C25.2046 35.9304 24.5012 36.2299 23.9794 36.7656L22.6022 38.1632C22.0705 38.6989 21.7832 39.4077 21.7832 40.1664C21.7832 40.9251 22.0804 41.6306 22.6022 42.1596L30.8884 50.6016C31.397 51.1307 32.0806 51.4268 32.8501 51.4435C33.5865 51.4268 34.2702 51.1273 34.7688 50.6082L50.7302 34.3566C51.8035 33.2485 51.7969 31.4617 50.7302 30.3702L49.3431 28.956L49.3528 28.9424ZM49.5642 33.1751L33.5927 49.437C33.3384 49.6998 33.0346 49.7697 32.8563 49.7697C32.6449 49.7697 32.3411 49.7031 32.0769 49.4303L23.7841 40.9783C23.5629 40.7554 23.4473 40.4659 23.4473 40.1597C23.4473 39.8536 23.5662 39.5541 23.7841 39.3345L25.1613 37.9303C25.3727 37.7074 25.6501 37.5909 25.9572 37.5909C26.2611 37.5909 26.5418 37.7107 26.7531 37.9303L31.7499 43.0248C32.0373 43.3243 32.427 43.484 32.8331 43.484C33.2393 43.484 33.6291 43.3209 33.9163 43.0248L46.5812 30.1209C46.8025 29.898 47.0799 29.7882 47.3838 29.7815C47.681 29.7815 47.9584 29.9013 48.1698 30.1143L49.5568 31.5285C49.9961 31.9811 49.9961 32.7198 49.5568 33.1823L49.5642 33.1751Z" fill="black"/>
</svg>
