<svg width="60" height="58" viewBox="0 0 60 58" fill="none" xmlns="http://www.w3.org/2000/svg">
<g id="Group 32">
<path id="Vector" d="M37.6734 26.0411C38.0323 26.0071 38.3656 25.8398 38.6078 25.5721C38.85 25.3044 38.9836 24.9557 38.9825 24.5943V19.5618C38.9838 19.2003 38.8503 18.8515 38.608 18.5837C38.3658 18.316 38.0324 18.1488 37.6734 18.115L34.3289 17.7881C34.1626 17.3118 33.9689 16.8455 33.7487 16.3918L35.8849 13.7866C36.1141 13.5081 36.2316 13.154 36.2143 12.7933C36.197 12.4327 36.0462 12.0914 35.7914 11.8363L32.2382 8.27577C31.9836 8.02069 31.6434 7.86987 31.2838 7.85276C30.9243 7.83565 30.5713 7.95348 30.2938 8.18324L27.696 10.3234C27.2431 10.1035 26.7781 9.90973 26.3031 9.74301L25.977 6.39036C25.9431 6.03059 25.7762 5.69652 25.5092 5.45374C25.2421 5.21096 24.8942 5.07699 24.5337 5.07813H19.5133C19.1527 5.0768 18.8047 5.2107 18.5376 5.45352C18.2705 5.69634 18.1037 6.03051 18.0699 6.39036L17.7439 9.74301C17.2689 9.90973 16.8038 10.1035 16.3509 10.3234L13.752 8.18204C13.4739 7.95266 13.1206 7.8353 12.7609 7.85285C12.4012 7.8704 12.0609 8.0216 11.8064 8.27698L8.2544 11.8375C7.99993 12.0929 7.84949 12.4342 7.83243 12.7948C7.81536 13.1553 7.93289 13.5094 8.1621 13.7878L10.2971 16.3918C10.0778 16.8458 9.88443 17.312 9.71811 17.7881L6.37353 18.115C6.01455 18.1488 5.68118 18.316 5.43894 18.5838C5.19671 18.8515 5.06313 19.2003 5.06446 19.5618V24.5943C5.06332 24.9557 5.19697 25.3044 5.43917 25.5721C5.68136 25.8398 6.01462 26.0071 6.37353 26.0411L9.71811 26.368C9.88443 26.8441 10.0777 27.3103 10.2971 27.7643L8.16211 30.3695C7.93283 30.648 7.81536 31.0021 7.83265 31.3628C7.84994 31.7234 8.00075 32.0647 8.25561 32.3198L11.8076 35.8803C12.0624 36.1354 12.4028 36.2862 12.7625 36.3033C13.1222 36.3204 13.4754 36.2026 13.7532 35.9728L16.3509 33.8315C16.8036 34.0523 17.2687 34.2465 17.7439 34.4131L18.0699 37.7657C18.1037 38.1255 18.2705 38.4597 18.5376 38.7025C18.8047 38.9454 19.1527 39.0793 19.5132 39.0779H24.5337C24.8942 39.0791 25.2421 38.9451 25.5092 38.7023C25.7762 38.4596 25.9431 38.1255 25.977 37.7657L26.3031 34.4131C26.7783 34.2465 27.2434 34.0523 27.6961 33.8315L30.295 35.9728C30.5728 36.2027 30.9261 36.3204 31.2859 36.3031C31.6457 36.2857 31.9861 36.1346 32.2406 35.8791L35.7926 32.3174C36.047 32.0624 36.1975 31.7215 36.2145 31.3613C36.2316 31.0011 36.114 30.6474 35.8849 30.3695V30.3683L33.7486 27.7643C33.9689 27.3105 34.1626 26.8443 34.3288 26.3679L37.6734 26.0411ZM32.2214 28.3615L34.619 31.2852L31.2085 34.7039L28.2918 32.3006C28.1725 32.2024 28.0268 32.142 27.8732 32.1268C27.7196 32.1116 27.5649 32.1424 27.4287 32.2152C26.7659 32.5717 26.0696 32.8619 25.3501 33.0816C25.2026 33.1267 25.0717 33.2145 24.974 33.3341C24.8763 33.4536 24.8161 33.5995 24.801 33.7534L24.4354 37.5158H19.6115L19.2459 33.7534C19.2309 33.5995 19.1707 33.4536 19.073 33.3341C18.9753 33.2145 18.8444 33.1267 18.6969 33.0816C17.9773 32.8619 17.2811 32.5717 16.6182 32.2152C16.482 32.1424 16.3274 32.1116 16.1738 32.1268C16.0202 32.142 15.8745 32.2024 15.7551 32.3006L12.8385 34.7039L9.42799 31.2852L11.8255 28.3615C11.9234 28.2419 11.9837 28.0958 11.9989 27.9419C12.014 27.7879 11.9833 27.6328 11.9106 27.4963C11.555 26.8319 11.2655 26.134 11.0463 25.4126C11.0014 25.2648 10.9138 25.1336 10.7945 25.0357C10.6752 24.9377 10.5297 24.8774 10.3762 24.8623L6.62286 24.4958V19.6603L10.3762 19.2938C10.5297 19.2787 10.6752 19.2184 10.7945 19.1204C10.9138 19.0225 11.0014 18.8913 11.0463 18.7434C11.2655 18.0221 11.555 17.3242 11.9106 16.6598C11.9833 16.5232 12.014 16.3682 11.9989 16.2142C11.9837 16.0602 11.9234 15.9142 11.8255 15.7946L9.42799 12.8709L12.8385 9.45219L15.7551 11.8555C15.8743 11.9539 16.02 12.0145 16.1737 12.0297C16.3274 12.0449 16.4821 12.014 16.6182 11.9408C17.281 11.5843 17.9773 11.2941 18.6969 11.0744C18.8444 11.0294 18.9752 10.9415 19.073 10.822C19.1707 10.7024 19.2309 10.5565 19.2459 10.4027L19.6115 6.64032H24.4354L24.801 10.4027C24.8161 10.5565 24.8763 10.7024 24.974 10.822C25.0717 10.9415 25.2026 11.0294 25.3501 11.0744C26.0696 11.2941 26.7659 11.5843 27.4287 11.9408C27.5649 12.0137 27.7196 12.0445 27.8732 12.0293C28.0268 12.0141 28.1725 11.9536 28.2919 11.8555L31.2085 9.45219L34.619 12.8709L32.2214 15.7946C32.1233 15.9141 32.0628 16.0601 32.0476 16.2142C32.0325 16.3682 32.0633 16.5233 32.1363 16.6598C32.4919 17.3242 32.7815 18.0221 33.0006 18.7434C33.0456 18.8913 33.1332 19.0225 33.2525 19.1204C33.3717 19.2184 33.5173 19.2787 33.6707 19.2938L37.4241 19.6603V24.4958L33.6707 24.8623C33.5173 24.8774 33.3717 24.9377 33.2525 25.0356C33.1332 25.1336 33.0455 25.2648 33.0006 25.4126C32.7814 26.1339 32.4919 26.8319 32.1363 27.4963C32.0633 27.6327 32.0325 27.7878 32.0476 27.9419C32.0628 28.0959 32.1233 28.242 32.2214 28.3615Z" fill="black"/>
<path id="Vector_2" d="M22.0242 13.7617C20.3833 13.7617 18.7792 14.2495 17.4148 15.1633C16.0505 16.0772 14.987 17.3761 14.3591 18.8957C13.7311 20.4154 13.5668 22.0876 13.887 23.7009C14.2071 25.3142 14.9973 26.7961 16.1576 27.9592C17.3179 29.1223 18.7962 29.9144 20.4056 30.2353C22.015 30.5562 23.6832 30.3915 25.1992 29.762C26.7153 29.1325 28.011 28.0666 28.9227 26.6989C29.8343 25.3312 30.3209 23.7233 30.3209 22.0784C30.3183 19.8735 29.4434 17.7596 27.888 16.2005C26.3326 14.6414 24.2239 13.7643 22.0242 13.7617ZM22.0242 28.8329C20.6915 28.8329 19.3887 28.4368 18.2806 27.6946C17.1725 26.9524 16.3089 25.8975 15.7989 24.6632C15.2889 23.429 15.1554 22.0709 15.4154 20.7607C15.6754 19.4504 16.3172 18.2469 17.2595 17.3022C18.2019 16.3576 19.4026 15.7143 20.7097 15.4537C22.0168 15.193 23.3716 15.3268 24.6029 15.838C25.8341 16.3493 26.8865 17.215 27.6269 18.3258C28.3673 19.4366 28.7625 20.7425 28.7625 22.0784C28.7603 23.8691 28.0497 25.5859 26.7865 26.8521C25.5233 28.1184 23.8107 28.8307 22.0242 28.8329Z" fill="black"/>
<path id="Vector_3" d="M24.3266 44.0358L26.1931 42.1648C21.611 43.1241 16.8394 42.4813 12.6725 40.3434C8.50561 38.2056 5.19488 34.7016 3.29143 30.4148C1.38798 26.128 1.00665 21.317 2.21092 16.7827C3.41518 12.2484 6.13239 8.2643 9.91021 5.49367C13.688 2.72304 18.2986 1.33301 22.9743 1.55497C27.65 1.77693 32.1089 3.59749 35.6086 6.7136C39.1083 9.8297 41.4378 14.0533 42.2092 18.6814C42.9806 23.3095 42.1474 28.0629 39.8483 32.1502L42.9136 29.0775C44.3907 24.6481 44.4285 19.8633 43.0216 15.411C41.6147 10.9587 38.8355 7.06831 35.0836 4.29923C31.3318 1.53016 26.8006 0.0250476 22.1416 0.000309889C17.4825 -0.0244278 12.9357 1.43248 9.15479 4.16156C5.3739 6.89064 2.55375 10.7513 1.09985 15.1884C-0.354056 19.6255 -0.366817 24.4105 1.0634 28.8553C2.49362 33.3001 5.29313 37.1759 9.05941 39.9252C12.8257 42.6745 17.3647 44.1557 22.0238 44.1559C22.793 44.156 23.5616 44.1159 24.3266 44.0358Z" fill="black"/>
<path id="Vector_4" d="M59.5534 19.6112L57.7698 17.8231C57.5268 17.5793 57.2084 17.4254 56.8668 17.3866C56.5251 17.3478 56.1805 17.4264 55.8892 17.6096L50.2169 21.1593C50.0228 21.2807 49.8585 21.4445 49.7362 21.6384C49.614 21.8323 49.537 22.0514 49.511 22.2793C49.485 22.5072 49.5106 22.738 49.5859 22.9546C49.6613 23.1712 49.7844 23.3679 49.9462 23.5302L50.0443 23.6288L39.0087 34.6925L37.727 33.4078C37.5809 33.2614 37.3827 33.1791 37.1761 33.1791C36.9694 33.1791 36.7712 33.2614 36.6251 33.4078L21.9801 48.0881C21.0024 49.0698 20.4535 50.4005 20.4541 51.7876C20.4547 53.1748 21.0047 54.505 21.9832 55.4859C22.9617 56.4668 24.2887 57.0181 25.6726 57.0187C27.0564 57.0193 28.3839 56.4691 29.3632 55.489L44.0083 40.8087C44.1544 40.6622 44.2365 40.4635 44.2365 40.2564C44.2365 40.0492 44.1544 39.8506 44.0083 39.7041L42.7267 38.4194L53.7638 27.3572L53.8614 27.4549C54.0232 27.6172 54.2195 27.7408 54.4356 27.8165C54.6517 27.8921 54.882 27.9179 55.1094 27.8919C55.3369 27.8659 55.5555 27.7888 55.749 27.6662C55.9426 27.5437 56.106 27.379 56.2272 27.1843L59.7661 21.4998C59.9502 21.2077 60.0295 20.8614 59.9908 20.518C59.9522 20.1747 59.7979 19.8548 59.5534 19.6112ZM28.2618 54.3839C27.9218 54.7252 27.5181 54.9961 27.0737 55.1809C26.6293 55.3658 26.1529 55.4611 25.6718 55.4613C25.1906 55.4615 24.7141 55.3667 24.2695 55.1823C23.825 54.9978 23.421 54.7274 23.0807 54.3864C22.7405 54.0453 22.4706 53.6405 22.2865 53.1949C22.1024 52.7492 22.0077 52.2716 22.0078 51.7893C22.0079 51.307 22.1029 50.8294 22.2872 50.3839C22.4715 49.9384 22.7416 49.5337 23.0821 49.1928L34.4018 37.8458L39.581 43.0374L28.2618 54.3839ZM40.683 41.9327L35.5039 36.7411L37.1761 35.0648L42.3553 40.2564L40.683 41.9327ZM41.6247 37.3147L40.1108 35.7971L51.1456 24.7341L52.6611 26.2533L41.6247 37.3147ZM54.9301 26.317L54.3141 25.7011L51.6973 23.0779L51.082 22.4596L56.69 18.9501L58.4304 20.6947L54.9301 26.317Z" fill="black"/>
</g>
</svg>
