<svg width="60" height="58" viewBox="0 0 60 58" fill="none" xmlns="http://www.w3.org/2000/svg">
<path id="Vector" d="M56.7271 29.2998L51.0016 27.0367L49.1543 15.8878C50.7526 15.6361 51.8898 14.1934 51.7625 12.5781C51.6324 10.9628 50.283 9.72097 48.6622 9.7238H41.4967C39.8758 9.71531 38.5207 10.96 38.3906 12.5753C38.2605 14.1906 39.3977 15.6361 40.9988 15.8878L39.8814 22.595L37.2647 21.554C35.6664 20.9204 33.8588 21.1155 32.4358 22.0802C31.013 23.042 30.1586 24.646 30.1502 26.3659V34.2045H22.8344L19.816 15.8877C21.4171 15.6359 22.5543 14.1903 22.4243 12.5751C22.2941 10.9598 20.9391 9.71515 19.3182 9.72362H12.1527C10.5318 9.72079 9.18239 10.9626 9.05232 12.5779C8.92502 14.1932 10.0622 15.6359 11.6605 15.8877L8.64214 34.2045H3.65772C1.63789 34.2045 0 35.8424 0 37.8622V56.615C0 56.9714 0.285713 57.2572 0.639318 57.2572H59.3606C59.7142 57.2572 60 56.9714 60 56.615V34.1283C60.0084 31.9982 58.7102 30.0806 56.7271 29.2998ZM39.6718 12.8332C39.6718 11.8262 40.4894 11.0086 41.4964 11.0086H48.6619C49.6717 11.0086 50.4893 11.8262 50.4893 12.8332C50.4893 13.8403 49.6717 14.6578 48.6619 14.6578H41.4964C41.0127 14.6578 40.5488 14.4655 40.2065 14.1232C39.8643 13.7809 39.6718 13.3169 39.6718 12.8332ZM42.2885 15.9422H47.8642L49.6153 26.5022L41.1032 23.085L42.2885 15.9422ZM19.9148 24.4289H11.5186L12.9302 15.9422H18.5058L19.9148 24.4289ZM10.3027 12.8332C10.3027 11.8262 11.1202 11.0086 12.1301 11.0086H19.2956C20.3026 11.0086 21.1202 11.8262 21.1202 12.8332C21.1202 13.8403 20.3026 14.6578 19.2956 14.6578H12.1301C11.1231 14.655 10.3083 13.8403 10.3027 12.8332ZM11.3069 25.71H20.1246L21.5362 34.2047H9.89563L11.3069 25.71ZM1.2813 37.8625C1.2813 36.5499 2.34499 35.4863 3.6575 35.4863H30.1497V55.9757H1.28145L1.2813 37.8625ZM58.7179 55.9672H31.4335V26.3661C31.4335 25.0704 32.0785 23.8626 33.1506 23.1384C34.2256 22.4142 35.5863 22.27 36.7885 22.7537L56.251 30.4938C57.7446 31.0793 58.7262 32.5249 58.7177 34.1288L58.7179 55.9672ZM27.0348 38.2927H4.40399C4.05038 38.2927 3.76184 38.5784 3.76184 38.9349V44.1399C3.76184 44.4935 4.05038 44.7793 4.40399 44.7793H27.0348C27.3884 44.7793 27.6769 44.4935 27.6769 44.1399V38.9349C27.6713 38.5841 27.3856 38.3012 27.0348 38.3012V38.2927ZM26.3926 43.4978H5.02917V39.5742H26.3926V43.4978ZM27.0348 46.6661H4.40399C4.05038 46.6661 3.76184 46.9518 3.76184 47.3082V52.5133C3.76184 52.8669 4.05038 53.1527 4.40399 53.1527H27.0348C27.3884 53.1527 27.6769 52.8669 27.6769 52.5133V47.3082C27.6713 46.9575 27.3856 46.6746 27.0348 46.6746V46.6661ZM26.3926 51.8712H5.02917V47.9475H26.3926V51.8712ZM39.504 33.6224H34.7431C34.3895 33.6224 34.1038 33.911 34.1038 34.2646V38.2929C34.1066 38.6436 34.3923 38.9265 34.7431 38.9265H39.504C39.8548 38.9265 40.1405 38.6436 40.1462 38.2929V34.2646C40.1462 34.0948 40.0783 33.9308 39.9566 33.812C39.8378 33.6903 39.6738 33.6224 39.504 33.6224ZM38.8619 37.6819H35.3852V34.8982H38.8619V37.6819ZM47.4529 33.6536H42.6948C42.3412 33.6536 42.0526 33.9393 42.0526 34.2957V38.324C42.0583 38.6748 42.344 38.9577 42.6948 38.9577H47.4557C47.8065 38.9577 48.0922 38.6748 48.095 38.324V34.2646C48.095 33.911 47.8093 33.6224 47.4557 33.6224L47.4529 33.6536ZM46.8136 37.6819H43.3369V34.8982H46.8136V37.6819ZM55.4046 33.6536H50.6465C50.29 33.6536 50.0043 33.9393 50.0043 34.2957V38.324C50.0071 38.6748 50.2957 38.9577 50.6465 38.9577H55.4074H55.4046C55.7554 38.9577 56.0439 38.6748 56.0467 38.324V34.2646C56.0467 33.911 55.761 33.6224 55.4046 33.6224L55.4046 33.6536ZM54.7653 37.6819H51.2858V34.8982H54.7624L54.7653 37.6819ZM39.5038 40.4881H34.7428C34.3892 40.4881 34.1035 40.7738 34.1035 41.1302V45.1585C34.1035 45.5121 34.3892 45.7978 34.7428 45.7978H39.5038C39.8574 45.7978 40.1459 45.5121 40.1459 45.1585V41.1302C40.1459 40.7738 39.8574 40.4881 39.5038 40.4881ZM38.8616 44.5164H35.385V41.7695H38.8616V44.5164ZM47.4526 40.4881H42.6945C42.3409 40.4881 42.0524 40.7738 42.0524 41.1302V45.1585C42.0524 45.5121 42.3409 45.7978 42.6945 45.7978H47.4555C47.8091 45.7978 48.0948 45.5121 48.0948 45.1585V41.1302C48.0948 40.7738 47.8091 40.4881 47.4555 40.4881H47.4526ZM46.8105 44.5164H43.3367V41.7695H46.8133L46.8105 44.5164ZM55.4015 40.4881H50.6462C50.2898 40.4881 50.0041 40.7738 50.0041 41.1302V45.1585C50.0041 45.5121 50.2898 45.7978 50.6462 45.7978H55.4072H55.4043C55.7608 45.7978 56.0465 45.5121 56.0465 45.1585V41.1302C56.0465 40.7738 55.7608 40.4881 55.4043 40.4881H55.4015ZM54.7594 44.5164H51.2855V41.7695H54.7622L54.7594 44.5164ZM39.5037 47.3594H34.7427C34.3891 47.3594 34.1034 47.6479 34.1034 48.0015V52.0157C34.1034 52.3693 34.3891 52.655 34.7427 52.655H39.5037C39.8573 52.655 40.1458 52.3693 40.1458 52.0157V48.0015C40.1458 47.8318 40.0779 47.6677 39.9563 47.5489C39.8375 47.4273 39.6734 47.3594 39.5037 47.3594ZM38.8615 51.3876H35.3848V48.6436H38.8615V51.3876ZM47.4525 47.3594H42.6944C42.3408 47.3594 42.0523 47.6479 42.0523 48.0015V52.0157C42.0523 52.3693 42.3408 52.655 42.6944 52.655H47.4554C47.6251 52.6578 47.792 52.5899 47.9136 52.4711C48.0353 52.3495 48.1032 52.1854 48.1032 52.0157V48.0015C48.1032 47.8289 48.0353 47.6649 47.9136 47.5461C47.792 47.4244 47.6251 47.3594 47.4554 47.3594L47.4525 47.3594ZM46.8104 51.3876H43.3365V48.6436H46.8132L46.8104 51.3876ZM55.4014 47.3594H50.6461C50.2897 47.3594 50.004 47.6479 50.004 48.0015V52.0157C50.004 52.3693 50.2897 52.655 50.6461 52.655H55.407H55.4042C55.7607 52.655 56.0464 52.3693 56.0464 52.0157V48.0015C56.0464 47.8318 55.9785 47.6677 55.8597 47.5489C55.738 47.4273 55.5739 47.3594 55.4042 47.3594H55.4014ZM54.7592 51.3876H51.2854V48.6436H54.7621L54.7592 51.3876ZM14.4054 5.62273C14.4196 6.29035 14.6883 6.92685 15.1608 7.40206C15.4097 7.651 15.4097 8.05835 15.1608 8.30729C14.9062 8.55623 14.4988 8.55623 14.2471 8.30729C13.5285 7.56051 13.1325 6.56186 13.1382 5.52367C13.257 4.51096 13.8228 3.60573 14.6856 3.05694C16.2697 1.89426 18.2075 2.4544 20.2612 3.05694C23.52 3.99332 26.8835 4.95793 30.2724 0.281865H30.2695C30.3685 0.143249 30.5213 0.0499008 30.6882 0.0216069C30.8579 -0.00385258 31.0305 0.035751 31.1663 0.137593C31.452 0.346926 31.5142 0.745793 31.3105 1.03435C27.3955 6.4346 23.0642 5.19842 19.9046 4.28471C18.0857 3.76421 16.5185 3.3201 15.4378 4.10367V4.1065C14.889 4.43464 14.5102 4.98907 14.4054 5.62273ZM42.0063 5.62273C42.0177 6.29317 42.2892 6.9325 42.7617 7.4106C43.0078 7.66237 43.0078 8.06406 42.7617 8.31583C42.5127 8.56477 42.1054 8.56477 41.8564 8.31583C41.1322 7.57188 40.7334 6.5704 40.7476 5.53221C40.8664 4.51386 41.4406 3.60573 42.309 3.06549C43.8932 1.90281 45.831 2.46295 47.8762 3.06549C51.1209 3.97637 54.4759 4.94388 57.9098 0.264919C58.006 0.129134 58.1559 0.0357797 58.3228 0.00749303C58.4926 -0.0179664 58.6623 0.0216379 58.7981 0.123479C58.9367 0.222489 59.03 0.372417 59.0583 0.542144C59.0838 0.709047 59.0442 0.881606 58.9423 1.02022C55.0272 6.42048 50.7047 5.18429 47.5451 4.27059C45.7262 3.75008 44.159 3.30597 43.0783 4.08954C42.5126 4.41486 42.1194 4.97218 42.0062 5.61431L42.0063 5.62273Z" fill="black"/>
</svg>
