<svg width="73" height="72" viewBox="0 0 73 72" fill="none" xmlns="http://www.w3.org/2000/svg">
<path fill-rule="evenodd" clip-rule="evenodd" d="M21.9559 8.54214V19.117C21.9325 21.3941 22.3376 23.655 23.1498 25.78C24.193 28.6987 25.7501 31.4039 27.7463 33.7654C30.2728 36.6208 33.2263 39.061 36.5 40.9977C39.7737 39.061 42.7272 36.6208 45.2537 33.7654C47.2505 31.404 48.8082 28.6988 49.8518 25.78C50.664 23.655 51.0692 21.3941 51.0457 19.117V8.54214C48.2777 8.50823 45.5327 8.02926 42.9145 7.12328C40.4078 6.23073 38.1901 4.66617 36.5 2.59798C34.8104 4.66592 32.5932 6.23046 30.0871 7.12328C27.4689 8.02926 24.724 8.50823 21.9559 8.54214ZM61.5607 64.5113L62.5106 69.0187C62.569 69.2917 62.5657 69.5745 62.5009 69.8461C62.4054 70.2586 62.1737 70.6261 61.8439 70.8884C61.514 71.1508 61.1055 71.2925 60.6853 71.2903H41.3421C41.0641 71.2905 40.7895 71.2281 40.5385 71.1075C40.2875 70.987 40.0665 70.8114 39.8916 70.5936C39.7166 70.3758 39.5923 70.1213 39.5276 69.8488C39.4629 69.5763 39.4595 69.2927 39.5176 69.0187L40.4716 64.5113C40.2403 64.4342 40.0277 64.309 39.8475 64.1438C39.8245 64.1255 39.8025 64.1059 39.7818 64.0849C39.6203 63.9226 39.4923 63.7297 39.4049 63.5173C39.3176 63.305 39.2727 63.0773 39.2728 62.8474V59.2909C39.2735 58.8586 39.4335 58.442 39.7219 58.122C39.7408 58.098 39.7611 58.0751 39.7826 58.0534C39.9435 57.8905 40.1347 57.7612 40.3453 57.673C40.5559 57.5849 40.7817 57.5395 41.0098 57.5396H41.1662L41.2286 50.9893C41.2231 49.5733 41.4963 48.1702 42.0325 46.8613C42.5687 45.5525 43.3572 44.3638 44.3524 43.3641L56.7834 30.547C57.3887 29.9261 58.1667 29.5047 59.0146 29.3388C59.8625 29.1728 60.7404 29.27 61.5323 29.6175L64.4437 16.2727C64.4654 16.1721 64.5046 16.0761 64.5596 15.9893C65.5685 14.244 67.0617 12.834 68.8554 11.9328C69.489 11.6473 70.1971 11.5754 70.8744 11.7278C71.2208 11.8198 71.5431 11.9868 71.819 12.217C72.0948 12.4472 72.3177 12.7352 72.472 13.0609C72.9656 14.0158 73.1293 15.5294 72.784 17.6851C72.784 17.7104 72.7775 17.7357 72.7727 17.761L68.019 42.2303C67.7623 43.6053 67.239 44.9158 66.479 46.0866L62.6046 52.1582C61.6717 53.5763 61.1612 55.2339 61.1335 56.9351L61.1157 57.542C61.5597 57.5667 61.9775 57.7616 62.2835 58.0867C62.5894 58.4119 62.7603 58.8428 62.7611 59.2909V62.8474C62.7612 63.0774 62.7163 63.3051 62.6288 63.5175C62.5413 63.7299 62.413 63.9227 62.2512 64.0849C62.0589 64.2792 61.824 64.4252 61.5655 64.5113H61.5607ZM42.194 64.5979L41.1873 69.3732C41.181 69.3974 41.1796 69.4227 41.1832 69.4475C41.1905 69.4695 41.202 69.4898 41.2173 69.5071C41.2319 69.5265 41.2508 69.5421 41.2724 69.5529C41.2944 69.5621 41.3182 69.5663 41.3421 69.5651H60.6853C60.7094 69.5662 60.7335 69.5621 60.7558 69.5529C60.7774 69.5421 60.7963 69.5265 60.8109 69.5071C60.8262 69.4898 60.8377 69.4695 60.845 69.4475C60.8499 69.423 60.8499 69.3977 60.845 69.3732L59.8383 64.5963L42.194 64.5979ZM61.0225 59.2631H41.0025C40.9989 59.2632 40.9954 59.2641 40.9922 59.2656C40.989 59.2672 40.9861 59.2694 40.9838 59.2721L40.9765 59.2786V59.2909V62.8474C40.9766 62.851 40.9775 62.8545 40.979 62.8578C40.9805 62.861 40.9827 62.8639 40.9855 62.8662L40.9911 62.8728H41.0041H61.0241C61.0315 62.8729 61.0387 62.8703 61.0444 62.8654C61.0471 62.8631 61.0493 62.8602 61.0508 62.857C61.0524 62.8537 61.0532 62.8502 61.0533 62.8466V59.2909C61.0532 59.2873 61.0524 59.2838 61.0508 59.2805C61.0493 59.2773 61.0471 59.2744 61.0444 59.2721C61.042 59.2694 61.0391 59.2673 61.0359 59.2657C61.0327 59.2642 61.0293 59.2633 61.0257 59.2631H61.0225ZM42.8667 57.5396L42.9291 51.0049C42.9219 49.8081 43.152 48.622 43.6059 47.5161C44.0598 46.4102 44.7283 45.4068 45.5722 44.5649L58.0017 31.7486C58.4615 31.2792 59.0824 31.0052 59.7366 30.9829C60.3907 30.9606 61.0285 31.1917 61.5189 31.6287C62.0092 32.0657 62.3147 32.6754 62.3727 33.3325C62.4307 33.9896 62.2367 34.644 61.8306 35.1614L52.7219 45.2763C52.5696 45.4451 52.49 45.6679 52.5008 45.8958C52.5115 46.1237 52.6116 46.3379 52.779 46.4914C52.9465 46.6449 53.1676 46.725 53.3937 46.7142C53.6198 46.7034 53.8324 46.6026 53.9847 46.4338L63.0926 36.3189L63.1201 36.2862C63.7617 35.5007 64.1057 34.5112 64.0909 33.4939C64.076 32.4767 63.7033 31.4978 63.0391 30.7317L66.0842 16.7898C66.8905 15.4004 68.0708 14.2695 69.4884 13.5281C69.7861 13.3838 70.1206 13.3356 70.4465 13.3901C70.5592 13.4264 70.663 13.4867 70.7506 13.5669C70.8383 13.6471 70.9079 13.7453 70.9547 13.8549C71.2902 14.5035 71.3818 15.6519 71.0998 17.4098L66.3428 41.9003C66.1307 43.0626 65.6897 44.1702 65.0459 45.1579L61.1708 51.2295C60.0708 52.9113 59.4681 54.8737 59.433 56.8878L59.4144 57.5412L42.8667 57.5396ZM13.1658 64.5979L12.1591 69.3732C12.1528 69.3974 12.1514 69.4227 12.155 69.4475C12.1623 69.4695 12.1739 69.4898 12.1891 69.5071C12.2038 69.5267 12.223 69.5424 12.245 69.5529C12.2671 69.5621 12.2909 69.5663 12.3147 69.5651H31.6579C31.6818 69.5663 31.7056 69.5621 31.7276 69.5529C31.7492 69.5421 31.7681 69.5265 31.7827 69.5071C31.798 69.4898 31.8096 69.4695 31.8168 69.4475C31.8204 69.4227 31.819 69.3974 31.8127 69.3732L30.8061 64.5963L13.1658 64.5979ZM32.5325 64.5113L33.4824 69.0187C33.5415 69.2928 33.5388 69.5767 33.4745 69.8496C33.4101 70.1225 33.2858 70.3774 33.1107 70.5954C32.9356 70.8134 32.7142 70.9891 32.4627 71.1093C32.2113 71.2296 31.9362 71.2915 31.6579 71.2903H12.3147C12.0366 71.2907 11.762 71.2283 11.5109 71.1078C11.2598 70.9873 11.0386 70.8117 10.8636 70.5939C10.6886 70.3761 10.5642 70.1216 10.4994 69.849C10.4347 69.5765 10.4313 69.2927 10.4894 69.0187L11.4393 64.5113C11.1808 64.4252 10.946 64.2792 10.7536 64.0849C10.592 63.9226 10.4638 63.7298 10.3763 63.5174C10.2889 63.305 10.2438 63.0774 10.2438 62.8474V59.2909C10.2442 59.0611 10.2896 58.8337 10.3774 58.6216C10.4652 58.4096 10.5936 58.217 10.7553 58.055C11.058 57.7493 11.4621 57.5672 11.89 57.5437L11.8722 56.9368C11.8445 55.2356 11.334 53.5779 10.4011 52.1599L6.52675 46.0883C5.76672 44.9174 5.24339 43.607 4.98675 42.232L0.225717 17.761C0.220853 17.7357 0.217611 17.7104 0.21518 17.6851C-0.130915 15.5294 0.0328112 14.0158 0.527232 13.0609C0.681275 12.7351 0.903927 12.4471 1.17969 12.2169C1.45545 11.9866 1.77769 11.8197 2.12397 11.7278C2.80133 11.5754 3.50942 11.6473 4.14299 11.9328C5.93674 12.834 7.42992 14.244 8.43878 15.9893C8.49379 16.0761 8.53304 16.1721 8.55468 16.2727L11.4677 29.6175C12.2596 29.27 13.1376 29.1728 13.9854 29.3388C14.8333 29.5047 15.6113 29.9261 16.2166 30.547L28.6517 43.3641C29.6469 44.3638 30.4354 45.5525 30.9716 46.8613C31.5078 48.1702 31.781 49.5733 31.7755 50.9893L31.8379 57.5396H31.9943C32.4549 57.5402 32.8965 57.725 33.2221 58.0533C33.5477 58.3816 33.7308 58.8267 33.7313 59.2909V62.8474C33.7314 63.0773 33.6865 63.305 33.5992 63.5173C33.5118 63.7297 33.3837 63.9226 33.2222 64.0849C33.2015 64.1059 33.1796 64.1255 33.1566 64.1438C32.9765 64.3092 32.7639 64.4344 32.5325 64.5113ZM13.5881 57.5396L13.5694 56.8861C13.5344 54.8721 12.9317 52.9097 11.8316 51.2279L7.95652 45.1563C7.31272 44.1686 6.87176 43.0609 6.65967 41.8987L1.89783 17.4098C1.61577 15.6544 1.70736 14.5035 2.04292 13.8549C2.08971 13.7453 2.15929 13.6471 2.24696 13.5669C2.33463 13.4867 2.43835 13.4264 2.55112 13.3901C2.87695 13.3356 3.21155 13.3838 3.50916 13.5281C4.92929 14.2687 6.11215 15.3996 6.92066 16.7898L9.96095 30.7292C9.29673 31.4953 8.92399 32.4742 8.90914 33.4915C8.8943 34.5087 9.23832 35.4983 9.8799 36.2837L9.90745 36.3164L19.0153 46.4371C19.1681 46.6058 19.3811 46.7065 19.6075 46.717C19.8339 46.7275 20.0552 46.6469 20.2226 46.493C20.3901 46.3391 20.49 46.1244 20.5004 45.8963C20.5108 45.6681 20.4309 45.4451 20.2781 45.2763L11.1694 35.1614C10.7633 34.644 10.5694 33.9896 10.6273 33.3325C10.6853 32.6754 10.9909 32.0657 11.4812 31.6287C11.9715 31.1917 12.6093 30.9606 13.2635 30.9829C13.9176 31.0052 14.5385 31.2792 14.9984 31.7486L27.4294 44.5624C28.2733 45.4044 28.9419 46.4077 29.3957 47.5136C29.8496 48.6195 30.0797 49.8057 30.0725 51.0024L30.1349 57.5371L13.5881 57.5396ZM31.9943 59.2631H11.9743C11.9706 59.2632 11.967 59.2641 11.9637 59.2656C11.9603 59.2672 11.9573 59.2694 11.9548 59.2721C11.9507 59.2774 11.9486 59.2841 11.9492 59.2909V62.8474C11.9492 62.851 11.9501 62.8545 11.9516 62.8578C11.9532 62.861 11.9554 62.8639 11.9581 62.8662C11.9639 62.8713 11.9715 62.8739 11.9792 62.8736H31.9992H32.0121L32.0178 62.867C32.0205 62.8647 32.0227 62.8618 32.0243 62.8586C32.0258 62.8554 32.0266 62.8518 32.0267 62.8482V59.2909C32.026 59.2838 32.0229 59.2771 32.0179 59.2721C32.0128 59.267 32.0062 59.2638 31.9992 59.2631H31.9943ZM29.2296 22.4301C29.1468 22.3508 29.0807 22.2557 29.035 22.1503C28.9893 22.0448 28.9651 21.9313 28.9636 21.8162C28.9622 21.7012 28.9836 21.5871 29.0267 21.4805C29.0697 21.374 29.1335 21.2772 29.2142 21.1959C29.295 21.1145 29.391 21.0503 29.4968 21.007C29.6026 20.9637 29.7158 20.9422 29.83 20.9437C29.9441 20.9453 30.0568 20.9698 30.1614 21.0159C30.266 21.062 30.3603 21.1287 30.4389 21.2122L34.4737 25.276L42.5636 17.1231C42.6421 17.0396 42.7365 16.9729 42.8411 16.9268C42.9457 16.8807 43.0583 16.8561 43.1725 16.8546C43.2866 16.8531 43.3999 16.8746 43.5057 16.9179C43.6114 16.9612 43.7075 17.0254 43.7882 17.1067C43.869 17.1881 43.9327 17.2849 43.9758 17.3914C44.0188 17.4979 44.0403 17.6121 44.0388 17.7271C44.0374 17.8422 44.0131 17.9557 43.9674 18.0612C43.9218 18.1666 43.8556 18.2617 43.7729 18.341L35.0759 27.1032C34.9965 27.1833 34.9022 27.2467 34.7985 27.29C34.6948 27.3334 34.5836 27.3556 34.4713 27.3556C34.359 27.3556 34.2478 27.3334 34.144 27.29C34.0403 27.2467 33.946 27.1833 33.8666 27.1032L29.2296 22.4301ZM36.5 37.045C34.3022 35.6071 32.2995 33.8868 30.5426 31.9275C28.6727 29.7772 27.2145 27.2962 26.242 24.6102C25.572 22.8573 25.2381 20.9921 25.258 19.1137V11.6282C27.2781 11.4048 29.2656 10.9457 31.1805 10.26C33.105 9.56734 34.9024 8.55852 36.5 7.2744C38.0977 8.55836 39.8951 9.56716 41.8195 10.26C43.7344 10.9457 45.7219 11.4048 47.742 11.6282V19.117C47.7615 20.9943 47.4276 22.8583 46.758 24.6102C45.7851 27.2951 44.327 29.7749 42.4574 31.9242C40.7005 33.8835 38.6978 35.6038 36.5 37.0418V37.045ZM43.7396 33.0646C41.7573 35.2729 39.4853 37.1982 36.9863 38.7873C36.8468 38.8838 36.682 38.9362 36.5128 38.9379C36.3437 38.9397 36.1778 38.8907 36.0364 38.7971C33.5307 37.2058 31.2524 35.2771 29.2644 33.0646C27.258 30.7574 25.6934 28.0952 24.6501 25.2131C23.9118 23.2673 23.5393 21.2001 23.5519 19.117V10.8571C23.5517 10.6434 23.6308 10.4373 23.7735 10.2793C23.9162 10.1212 24.1124 10.0226 24.3235 10.0027C26.4644 9.81998 28.5736 9.36351 30.6002 8.64424C32.5568 7.94342 34.3655 6.87891 35.9326 5.50593C36.089 5.36595 36.2909 5.28864 36.5 5.28864C36.7092 5.28864 36.911 5.36595 37.0674 5.50593C38.6353 6.88072 40.4455 7.94639 42.4039 8.64751C44.409 9.35953 46.4953 9.81374 48.6133 9.99938C48.8378 10.0026 49.052 10.0947 49.2096 10.2558C49.3672 10.417 49.4555 10.6341 49.4555 10.8603V19.117C49.4677 21.2 49.0956 23.2671 48.358 25.2131C47.3141 28.0951 45.7493 30.7572 43.7429 33.0646H43.7396ZM20.2465 19.117V7.70161C20.2467 7.47589 20.3351 7.25933 20.4926 7.0988C20.65 6.93828 20.8639 6.84671 21.0879 6.84392C23.9454 6.87697 26.788 6.42436 29.4963 5.50512C32.0431 4.60659 34.2444 2.92233 35.7876 0.691467C35.865 0.575136 35.9695 0.479627 36.0919 0.413246C36.2143 0.346864 36.3509 0.311617 36.4899 0.310571C36.6289 0.309524 36.7661 0.342709 36.8895 0.40724C37.0128 0.471771 37.1187 0.565696 37.1979 0.680849C38.742 2.91652 40.9463 4.60463 43.4973 5.50512C46.1826 6.41756 49.0007 6.86956 51.8344 6.84229H51.8951C52.0075 6.84175 52.1189 6.86357 52.2229 6.90649C52.327 6.94942 52.4215 7.0126 52.5013 7.09243C52.581 7.17226 52.6443 7.26716 52.6876 7.37169C52.7309 7.47622 52.7533 7.58834 52.7535 7.70161V19.117C52.7705 21.5985 52.3271 24.0614 51.4461 26.3787C50.3346 29.4869 48.6762 32.3677 46.5505 34.8828C43.7909 38.0003 40.5524 40.651 36.9588 42.7335C36.8246 42.8194 36.6693 42.8658 36.5104 42.8677C36.3515 42.8696 36.1952 42.8268 36.0591 42.7441C32.4586 40.6595 29.2141 38.0052 26.4495 34.8828C24.3238 32.3677 22.6654 29.4869 21.5539 26.3787C20.673 24.0614 20.2295 21.5985 20.2465 19.117Z" fill="black"/>
</svg>
