<svg width="60" height="52" viewBox="0 0 60 52" fill="none" xmlns="http://www.w3.org/2000/svg">
<g id="Group 31">
<path id="Vector" d="M58.2353 0H1.76474C0.794127 0 0 0.782382 0 1.7353V39.6768C0 40.6356 0.794127 41.4179 1.76474 41.4179H20.4881L14.9587 49.0181C14.5763 49.5475 14.5234 50.2299 14.8175 50.8122C15.1175 51.4005 15.7234 51.771 16.394 51.771H43.6061C44.2767 51.771 44.8825 51.4063 45.1826 50.8122C45.4767 50.2358 45.4237 49.5475 45.0414 49.0181L39.5179 41.4179H58.2353C59.2059 41.4179 60 40.6356 60 39.6768V1.7353C60 0.782382 59.2059 0 58.2353 0ZM44.0883 49.7062C44.2648 49.9532 44.1824 50.1826 44.1354 50.2709C44.0354 50.4709 43.8354 50.5885 43.606 50.5885H16.3939C16.1645 50.5885 15.9645 50.4709 15.8645 50.2709C15.8174 50.1826 15.7351 49.9473 15.9116 49.7062L18.6939 45.8826H41.3115L44.0883 49.7062ZM40.453 44.7062H19.5469L21.941 41.4179H38.0585L40.453 44.7062ZM58.8233 39.6768C58.8233 39.9885 58.5586 40.2415 58.2351 40.2415H1.76448C1.44095 40.2415 1.17624 39.9885 1.17624 39.6768V1.7353C1.17624 1.42354 1.44095 1.17648 1.76448 1.17648H58.2351C58.5586 1.17648 58.8233 1.42942 58.8233 1.7353V39.6768Z" fill="black"/>
<path id="Vector_2" d="M54.1184 4.59961H5.8835C5.23644 4.59961 4.70703 5.12314 4.70703 5.76433V35.6584C4.70703 36.2995 5.23644 36.8231 5.8835 36.8231H54.1184C54.7655 36.8231 55.2949 36.2996 55.2949 35.6584V5.76433C55.2949 5.12316 54.7655 4.59961 54.1184 4.59961ZM54.1184 35.6411L35.0419 35.647C35.0301 35.647 35.0243 35.6411 35.0184 35.6411H24.9832C24.9714 35.6411 24.9596 35.647 24.942 35.647L5.88355 35.6529V5.77617L54.1185 5.76441L54.1184 35.6411Z" fill="black"/>
<path id="Vector_3" d="M32.3527 37.9414H27.6468C27.3233 37.9414 27.0586 38.2061 27.0586 38.5296C27.0586 38.8532 27.3233 39.1179 27.6468 39.1179H32.3527C32.6762 39.1179 32.9409 38.8532 32.9409 38.5296C32.9409 38.2061 32.6762 37.9414 32.3527 37.9414Z" fill="black"/>
<path id="Vector_4" d="M11.7648 33.5295C13.7118 33.5295 15.2942 31.9471 15.2942 30.0001C15.2942 28.0531 13.7118 26.4707 11.7648 26.4707C9.81773 26.4707 8.23535 28.0531 8.23535 30.0001C8.23535 31.9471 9.81773 33.5295 11.7648 33.5295ZM11.7648 27.6472C13.0648 27.6472 14.1177 28.7001 14.1177 30.0001C14.1177 31.3001 13.0648 32.3531 11.7648 32.3531C10.4647 32.3531 9.41182 31.3001 9.41182 30.0001C9.41182 28.7001 10.4647 27.6472 11.7648 27.6472Z" fill="black"/>
<path id="Vector_5" d="M18.2347 32.3523H24.1171C24.4406 32.3523 24.7053 32.0875 24.7053 31.764C24.7053 31.4405 24.4406 31.1758 24.1171 31.1758H18.2347C17.9112 31.1758 17.6465 31.4405 17.6465 31.764C17.6465 32.0875 17.9112 32.3523 18.2347 32.3523Z" fill="black"/>
<path id="Vector_6" d="M18.2347 28.8249H33.5285C33.852 28.8249 34.1167 28.5602 34.1167 28.2367C34.1167 27.9131 33.852 27.6484 33.5285 27.6484H18.2347C17.9112 27.6484 17.6465 27.9131 17.6465 28.2367C17.6465 28.5602 17.9112 28.8249 18.2347 28.8249Z" fill="black"/>
<path id="Vector_7" d="M11.7648 14.7053C13.7118 14.7053 15.2942 13.1229 15.2942 11.1759C15.2942 9.22887 13.7118 7.64648 11.7648 7.64648C9.81773 7.64648 8.23535 9.22887 8.23535 11.1759C8.23535 13.1229 9.81773 14.7053 11.7648 14.7053ZM11.7648 8.82295C13.0648 8.82295 14.1177 9.87587 14.1177 11.1759C14.1177 12.4759 13.0648 13.5288 11.7648 13.5288C10.4647 13.5288 9.41182 12.4759 9.41182 11.1759C9.41182 9.87587 10.4647 8.82295 11.7648 8.82295Z" fill="black"/>
<path id="Vector_8" d="M18.2347 13.53H24.1171C24.4406 13.53 24.7053 13.2653 24.7053 12.9418C24.7053 12.6182 24.4406 12.3535 24.1171 12.3535H18.2347C17.9112 12.3535 17.6465 12.6182 17.6465 12.9418C17.6465 13.2653 17.9112 13.53 18.2347 13.53Z" fill="black"/>
<path id="Vector_9" d="M18.2347 10.0007H33.5285C33.852 10.0007 34.1167 9.73599 34.1167 9.41245C34.1167 9.08892 33.852 8.82422 33.5285 8.82422H18.2347C17.9112 8.82422 17.6465 9.08892 17.6465 9.41245C17.6465 9.73599 17.9112 10.0007 18.2347 10.0007Z" fill="black"/>
<path id="Vector_10" d="M11.7648 24.1174C13.7118 24.1174 15.2942 22.535 15.2942 20.588C15.2942 18.641 13.7118 17.0586 11.7648 17.0586C9.81773 17.0586 8.23535 18.641 8.23535 20.588C8.23535 22.535 9.81773 24.1174 11.7648 24.1174ZM11.7648 18.2351C13.0648 18.2351 14.1177 19.288 14.1177 20.588C14.1177 21.888 13.0648 22.9409 11.7648 22.9409C10.4647 22.9409 9.41182 21.888 9.41182 20.588C9.41182 19.288 10.4647 18.2351 11.7648 18.2351Z" fill="black"/>
<path id="Vector_11" d="M18.2347 22.9421H24.1171C24.4406 22.9421 24.7053 22.6774 24.7053 22.3539C24.7053 22.0303 24.4406 21.7656 24.1171 21.7656H18.2347C17.9112 21.7656 17.6465 22.0303 17.6465 22.3539C17.6465 22.6774 17.9112 22.9421 18.2347 22.9421Z" fill="black"/>
<path id="Vector_12" d="M18.2347 19.4128H33.5285C33.852 19.4128 34.1167 19.1481 34.1167 18.8246C34.1167 18.501 33.852 18.2363 33.5285 18.2363H18.2347C17.9112 18.2363 17.6465 18.501 17.6465 18.8246C17.6465 19.1481 17.9112 19.4128 18.2347 19.4128Z" fill="black"/>
<path id="Vector_13" d="M35.741 22.0476L37.1469 22.4006C37.2881 22.8947 37.4822 23.3712 37.7351 23.8182L36.9881 25.0652C36.8469 25.2946 36.8881 25.5946 37.0763 25.7829L38.3351 27.0417C38.5234 27.2358 38.8234 27.2653 39.0528 27.13L40.2939 26.3829C40.741 26.6358 41.2175 26.83 41.7116 26.9711L42.0645 28.377C42.1292 28.6417 42.3645 28.8241 42.6351 28.8241H44.4116C44.6822 28.8241 44.9175 28.6417 44.9822 28.377L45.3351 26.9711C45.8292 26.83 46.3057 26.6358 46.7528 26.3829L47.9939 27.13C48.2233 27.2711 48.5233 27.2358 48.7115 27.0417L49.9704 25.7829C50.1586 25.5946 50.1998 25.2946 50.0586 25.0652L49.3116 23.8182C49.5645 23.3712 49.7586 22.8947 49.8998 22.4006L51.3057 22.0476C51.5704 21.9829 51.7528 21.7476 51.7528 21.477V19.7006C51.7528 19.43 51.5704 19.1947 51.3057 19.13L49.8998 18.777C49.7586 18.2829 49.5645 17.8064 49.3116 17.3594L50.0586 16.1124C50.1998 15.883 50.1586 15.583 49.9704 15.3947L48.7115 14.1359C48.5233 13.9418 48.2233 13.9065 47.9939 14.0476L46.7528 14.7947C46.3057 14.5418 45.8292 14.3476 45.3351 14.2065L44.9822 12.8006C44.9234 12.5359 44.6881 12.3535 44.4175 12.3535H42.641C42.3704 12.3535 42.1351 12.5359 42.0704 12.8006L41.7175 14.2065C41.2233 14.3476 40.7468 14.5418 40.2998 14.7947L39.0587 14.0476C38.8293 13.9065 38.5293 13.9476 38.341 14.1359L37.0822 15.3947C36.894 15.583 36.8528 15.883 36.994 16.1124L37.741 17.3594C37.4881 17.8065 37.294 18.2829 37.1528 18.777L35.7469 19.13C35.4763 19.1947 35.2939 19.43 35.2939 19.7006V21.477C35.2939 21.7476 35.4763 21.9829 35.741 22.0476ZM36.4704 20.1594L37.7704 19.8359C37.9881 19.7829 38.1528 19.6123 38.1998 19.3947C38.3351 18.7829 38.5763 18.2065 38.9116 17.6771C39.0293 17.4889 39.0351 17.2477 38.9175 17.0594L38.2351 15.9006L38.841 15.2947L39.9939 15.9829C40.1822 16.0947 40.4233 16.0947 40.6116 15.9771C41.141 15.6418 41.7175 15.4006 42.3292 15.2653C42.5468 15.2182 42.7174 15.0477 42.7704 14.8359L43.0998 13.53H43.9586L44.2821 14.83C44.335 15.0477 44.5056 15.2124 44.7233 15.2594C45.3351 15.3947 45.9115 15.6359 46.4409 15.9712C46.6291 16.0888 46.8703 16.0947 47.0585 15.9771L48.2174 15.2947L48.8233 15.9006L48.135 17.0535C48.0233 17.2417 48.0233 17.4829 48.1409 17.6711C48.4762 18.2006 48.7174 18.7771 48.8527 19.3888C48.8997 19.6064 49.0703 19.777 49.2821 19.8299L50.588 20.1593V21.0182L49.288 21.3417C49.0703 21.3946 48.9056 21.5652 48.8586 21.7829C48.7233 22.3946 48.4821 22.9711 48.1468 23.5005C48.0292 23.6887 48.0233 23.9299 48.1409 24.1181L48.8233 25.277L48.2174 25.8829L47.0645 25.1887C46.8762 25.077 46.6351 25.077 46.4468 25.1946C45.9174 25.5299 45.3409 25.7711 44.7292 25.9064C44.5116 25.9534 44.341 26.124 44.288 26.3358L43.9586 27.6476H43.0998L42.7763 26.3475C42.7234 26.1299 42.5528 25.9652 42.3351 25.9181C41.7234 25.7828 41.1469 25.5417 40.6175 25.2064C40.4293 25.0887 40.1881 25.0828 39.9999 25.2005L38.841 25.8828L38.2351 25.2769L38.9234 24.124C39.0351 23.9358 39.0351 23.6946 38.9175 23.5064C38.5822 22.977 38.341 22.4005 38.2057 21.7888C38.1587 21.5711 37.9881 21.4006 37.7763 21.3476L36.4704 21.0182V20.1594Z" fill="black"/>
<path id="Vector_14" d="M43.5299 24.7355C45.8181 24.7355 47.6769 22.8766 47.6769 20.5885C47.6769 18.3003 45.8181 16.4414 43.5299 16.4414C41.2417 16.4414 39.3828 18.3003 39.3828 20.5885C39.3828 22.8766 41.2417 24.7355 43.5299 24.7355ZM43.5299 17.6179C45.1652 17.6179 46.5004 18.9473 46.5004 20.5885C46.5004 22.2296 45.171 23.559 43.5299 23.559C41.8887 23.559 40.5593 22.2296 40.5593 20.5885C40.5593 18.9473 41.8945 17.6179 43.5299 17.6179Z" fill="black"/>
</g>
</svg>
