<svg width="74" height="74" viewBox="0 0 74 74" fill="none" xmlns="http://www.w3.org/2000/svg">
<path d="M14.5097 14.1808C14.5097 13.7683 14.1753 13.4339 13.7628 13.4339H13.2503V9.92147C13.2503 8.26211 11.9003 6.91211 10.2409 6.91211C8.58158 6.91211 7.23158 8.26211 7.23158 9.92147V13.4339H6.71908C6.30658 13.4339 5.97221 13.7683 5.97221 14.1808V17.5683C5.21597 17.5402 4.14093 17.6465 3.30661 18.309C2.51912 18.934 2.11909 19.8902 2.11909 21.1496L2.11597 29.9496C2.04409 31.3527 1.7441 32.3058 1.17221 32.9558C0.897207 33.2652 0.928456 33.7371 1.23783 34.0121C1.38158 34.1371 1.55658 34.1996 1.73158 34.1996C1.93783 34.1996 2.14409 34.1152 2.29409 33.9465C3.10657 33.0277 3.52537 31.7746 3.61281 30.0058V29.9683V21.1499C3.61281 20.3624 3.81594 19.8186 4.23156 19.4843C4.70656 19.1031 5.43156 19.0374 5.96908 19.0656V57.0216V57.0278C5.96908 57.0716 5.97533 57.1153 5.98158 57.1559C5.9847 57.1653 5.9847 57.1778 5.98783 57.1872C5.9972 57.2278 6.00971 57.2684 6.02533 57.3091C6.02533 57.3091 6.02533 57.3122 6.02845 57.3122L9.54717 65.7562C9.6628 66.0343 9.93468 66.2156 10.2378 66.2156C10.5409 66.2156 10.8128 66.0343 10.9284 65.7562L14.4471 57.3122C14.4471 57.3122 14.4471 57.3091 14.4503 57.3091C14.4659 57.2684 14.4784 57.2278 14.4878 57.1872C14.4909 57.1778 14.4909 57.1653 14.494 57.1559C14.5034 57.1122 14.5065 57.0685 14.5065 57.0278V57.0216L14.5097 14.1808ZM7.46903 14.9308H13.0159V56.2716H7.47215L7.46903 14.9308ZM8.72839 9.92146C8.72839 9.08706 9.40652 8.40898 10.2409 8.40898C11.0752 8.40898 11.7533 9.08711 11.7533 9.92146V13.4339H8.72839V9.92146ZM10.2409 63.5247L7.84399 57.7684H12.6409L10.2409 63.5247Z" fill="black"/>
<path d="M52.9752 50.4238C50.2752 50.4238 48.0752 52.6207 48.0752 55.3238C48.0752 58.0238 50.2721 60.2238 52.9752 60.2238C55.6752 60.2238 57.8752 58.0269 57.8752 55.3238C57.8721 52.6238 55.6752 50.4238 52.9752 50.4238ZM52.9752 58.727C51.1002 58.727 49.5721 57.2021 49.5721 55.3239C49.5721 53.4489 51.097 51.9208 52.9752 51.9208C54.8502 51.9208 56.3783 53.4457 56.3783 55.3239C56.3752 57.1989 54.8502 58.727 52.9752 58.727Z" fill="black"/>
<path d="M61.2749 23.0273H27.4061C26.9936 23.0273 26.6592 23.3617 26.6592 23.7742C26.6592 24.1867 26.9936 24.5211 27.4061 24.5211H61.2749C61.6874 24.5211 62.0217 24.1867 62.0217 23.7742C62.0217 23.3617 61.6874 23.0273 61.2749 23.0273Z" fill="black"/>
<path d="M61.2749 28.1934H27.4061C26.9936 28.1934 26.6592 28.5277 26.6592 28.9402C26.6592 29.3527 26.9936 29.6871 27.4061 29.6871H61.2749C61.6874 29.6871 62.0217 29.3527 62.0217 28.9402C62.0217 28.5277 61.6874 28.1934 61.2749 28.1934Z" fill="black"/>
<path d="M61.2749 33.3594H27.4061C26.9936 33.3594 26.6592 33.6938 26.6592 34.1062C26.6592 34.5188 26.9936 34.8531 27.4061 34.8531H61.2749C61.6874 34.8531 62.0217 34.5187 62.0217 34.1062C62.0217 33.6938 61.6874 33.3594 61.2749 33.3594Z" fill="black"/>
<path d="M48.6749 38.5254H27.4061C26.9936 38.5254 26.6592 38.8598 26.6592 39.2723C26.6592 39.6848 26.9936 40.0191 27.4061 40.0191H48.6781C49.0905 40.0191 49.4249 39.6848 49.4249 39.2723C49.4249 38.8598 49.0873 38.5254 48.6749 38.5254Z" fill="black"/>
<path d="M72.8001 16.319L57.6529 1.175C57.506 1.02813 57.3154 0.95625 57.1216 0.95625H57.1185L20.3937 0.953125C18.5906 0.953125 17.125 2.41873 17.125 4.22185V66.3002C17.125 68.1034 18.5906 69.569 20.3937 69.569H48.0777V72.2971C48.0777 72.569 48.2246 72.8159 48.459 72.9502C48.6933 73.0815 48.984 73.0784 49.2152 72.9378L53.0059 70.6346L57.5996 72.9659C57.7059 73.019 57.8215 73.0472 57.9371 73.0472C58.0746 73.0472 58.209 73.0097 58.3277 72.9378C58.5496 72.8003 58.684 72.5597 58.684 72.3003V69.5721H69.7432C71.5463 69.5721 73.0119 68.1065 73.0119 66.3034V16.913C73.0307 16.7005 72.9626 16.4815 72.8001 16.319ZM57.8689 3.5062L70.4625 16.0998H59.6409C58.6627 16.0998 57.869 15.3061 57.869 14.328L57.8689 3.5062ZM57.5595 62.0534C57.5345 62.069 57.5095 62.0847 57.4845 62.1034C56.1939 62.9659 54.6408 63.469 52.9752 63.469C48.4845 63.469 44.8312 59.8159 44.8312 55.3218C44.8312 50.8312 48.4843 47.1778 52.9752 47.1778C57.466 47.1778 61.1224 50.8309 61.1224 55.3218C61.1192 58.1187 59.7064 60.5846 57.5595 62.0534ZM53.3095 69.1096C53.0783 68.9909 52.8033 69.0034 52.5814 69.1378L49.572 70.9659V68.8472C49.572 68.8378 49.5752 68.8285 49.5752 68.8191C49.5752 68.8097 49.572 68.8003 49.572 68.791V64.3472C50.6283 64.7472 51.7751 64.9691 52.972 64.9691C54.4814 64.9691 55.9127 64.6191 57.1845 63.9972V71.0785L53.3095 69.1096ZM69.7439 68.0721H58.6847V63.0877C61.066 61.3315 62.616 58.5064 62.616 55.3252C62.616 50.0096 58.291 45.6844 52.9752 45.6844C47.6594 45.6844 43.3344 50.0094 43.3344 55.3252C43.3344 58.8565 45.2438 61.9471 48.0813 63.6284V68.0722H20.3941C19.4159 68.0722 18.6222 67.2785 18.6222 66.3004V4.22196C18.6222 3.2438 19.416 2.45012 20.3941 2.45012H56.3725V14.3253C56.3725 16.1284 57.8381 17.594 59.6412 17.594H71.5164V66.2972C71.5164 67.2785 70.722 68.0721 69.7439 68.0721Z" fill="black"/>
</svg>
