<svg width="93" height="79" viewBox="0 0 93 79" fill="none" xmlns="http://www.w3.org/2000/svg">
<g id="Group">
<path id="Vector" d="M46.1812 0.00320076C45.9277 0.0198057 45.6839 0.107017 45.4773 0.254848C45.2707 0.402679 45.1096 0.605249 45.0122 0.839779C44.9148 1.07431 44.885 1.33141 44.9261 1.582C44.9672 1.83259 45.0776 2.06671 45.2448 2.25788L50.6929 9.06423C50.9188 9.3461 51.2474 9.52682 51.6065 9.56661C51.9656 9.6064 52.3258 9.50205 52.6079 9.27647C52.89 9.0509 53.071 8.72254 53.111 8.36366C53.1509 8.00478 53.0467 7.64472 52.8211 7.36265L47.373 0.556292C47.2371 0.371147 47.0566 0.223346 46.8482 0.126655C46.6399 0.0299636 46.4104 -0.0125406 46.1812 0.00320076ZM84.4031 0.00320076C84.2026 0.0144115 84.007 0.06987 83.8304 0.165478C83.6538 0.261087 83.5005 0.394543 83.3816 0.556292L77.9335 7.36265C77.8217 7.50231 77.7385 7.66264 77.6887 7.83443C77.6389 8.00622 77.6235 8.18607 77.6432 8.36383C77.663 8.54159 77.7176 8.71378 77.8039 8.87045C77.8902 9.02712 78.0066 9.16525 78.1463 9.27697C78.286 9.3887 78.4464 9.47186 78.6183 9.52164C78.7902 9.57141 78.9702 9.58686 79.1481 9.56711C79.3259 9.54736 79.4981 9.49277 79.6549 9.4065C79.8117 9.32022 79.9499 9.20389 80.0617 9.06423L85.5098 2.25788C85.6864 2.0558 85.7993 1.80604 85.8344 1.54002C85.8694 1.274 85.825 1.00352 85.7068 0.762631C85.5885 0.521738 85.4017 0.321126 85.1698 0.186013C84.9378 0.0508988 84.6711 -0.0127002 84.4031 0.00320076ZM65.0794 5.49088C64.8905 5.53426 64.7131 5.61742 64.559 5.7348C64.4048 5.85217 64.2775 6.00112 64.1855 6.17158L59.0779 15.3601L48.8627 16.8065C48.6066 16.8387 48.365 16.943 48.1659 17.1072C47.9668 17.2714 47.8184 17.4887 47.7382 17.7339C47.6579 17.979 47.6489 18.2419 47.7124 18.492C47.7759 18.742 47.9091 18.9689 48.0966 19.1462L55.7154 26.5057L53.9278 36.545C53.8847 36.7938 53.9117 37.0496 54.0058 37.2839C54.0998 37.5182 54.2572 37.7218 54.4603 37.8719C54.6635 38.0219 54.9043 38.1125 55.156 38.1336C55.4077 38.1548 55.6604 38.1055 55.8857 37.9914L65.3773 32.8866L74.8264 37.9914C75.0517 38.1055 75.3043 38.1548 75.556 38.1336C75.8077 38.1125 76.0486 38.0219 76.2517 37.8719C76.4548 37.7218 76.6122 37.5182 76.7062 37.2839C76.8003 37.0496 76.8273 36.7938 76.7843 36.545L74.9966 26.5482L82.658 19.1888C82.8446 19.0143 82.9784 18.7908 83.0439 18.5439C83.1095 18.297 83.1042 18.0367 83.0288 17.7926C82.9533 17.5486 82.8106 17.3307 82.6171 17.1638C82.4236 16.997 82.187 16.8879 81.9344 16.8491L71.6767 15.3601L66.5691 6.17158C66.4282 5.91201 66.2067 5.70518 65.938 5.58241C65.6693 5.45964 65.3679 5.42751 65.0794 5.49088ZM65.3773 9.61724L69.6336 17.2745C69.7295 17.4626 69.8679 17.626 70.0378 17.7515C70.2077 17.877 70.4045 17.9612 70.6126 17.9977L78.7848 19.1888L72.6131 25.1019C72.4444 25.2554 72.3171 25.4488 72.2427 25.6644C72.1684 25.8799 72.1494 26.1107 72.1874 26.3355L73.592 34.2054L66.0158 30.1216C65.8138 30.0099 65.5868 29.9513 65.356 29.9513C65.1252 29.9513 64.8982 30.0099 64.6963 30.1216L57.12 34.2054L58.5246 26.3355C58.568 26.1143 58.5556 25.8857 58.4888 25.6703C58.4219 25.455 58.3026 25.2597 58.1415 25.1019L51.9698 19.1462L60.142 17.9551C60.3461 17.9233 60.5404 17.8455 60.71 17.7276C60.8796 17.6096 61.0201 17.4547 61.121 17.2745L65.3773 9.61724ZM46.3089 28.5901C45.9943 28.6018 45.6935 28.7221 45.4577 28.9305L38.6475 34.3756C38.5074 34.4872 38.3906 34.6253 38.304 34.782C38.2173 34.9388 38.1624 35.1111 38.1425 35.289C38.1225 35.467 38.1378 35.6472 38.1876 35.8192C38.2374 35.9912 38.3206 36.1517 38.4326 36.2916C38.5445 36.4314 38.6829 36.5478 38.8399 36.6341C38.9969 36.7204 39.1694 36.7749 39.3475 36.7945C39.5256 36.8141 39.7059 36.7984 39.8779 36.7483C40.0499 36.6982 40.2104 36.6147 40.3501 36.5026L47.1602 31.0574C47.3989 30.8867 47.576 30.6436 47.6652 30.3641C47.7544 30.0846 47.7509 29.7838 47.6553 29.5065C47.5596 29.2292 47.3768 28.9902 47.1342 28.825C46.8916 28.6599 46.6022 28.5775 46.3089 28.5901ZM84.4031 28.5901C84.1136 28.587 83.8306 28.6763 83.5952 28.8449C83.3599 29.0135 83.1844 29.2526 83.0943 29.5276C83.0041 29.8026 83.004 30.0992 83.0939 30.3743C83.1839 30.6494 83.3592 30.8887 83.5944 31.0574L90.4045 36.5026C90.5442 36.6147 90.7047 36.6982 90.8767 36.7483C91.0487 36.7984 91.229 36.8141 91.4071 36.7945C91.5852 36.7749 91.7577 36.7204 91.9147 36.6341C92.0717 36.5478 92.2101 36.4314 92.322 36.2916C92.434 36.1517 92.5172 35.9912 92.567 35.8192C92.6168 35.6472 92.6321 35.467 92.6122 35.289C92.5922 35.1111 92.5373 34.9388 92.4506 34.782C92.364 34.6253 92.2472 34.4872 92.1071 34.3756L85.297 28.9305C85.05 28.7128 84.7324 28.5918 84.4031 28.5901ZM65.207 40.8417C64.8686 40.8841 64.5584 41.0518 64.3378 41.3117C64.1171 41.5716 64.002 41.9048 64.0153 42.2455V50.4131C64.0127 50.5935 64.0461 50.7726 64.1134 50.9399C64.1807 51.1073 64.2806 51.2597 64.4073 51.3882C64.534 51.5167 64.6851 51.6187 64.8516 51.6883C65.0181 51.758 65.1968 51.7938 65.3773 51.7938C65.5578 51.7938 65.7365 51.758 65.903 51.6883C66.0696 51.6187 66.2206 51.5167 66.3473 51.3882C66.474 51.2597 66.5739 51.1073 66.6412 50.9399C66.7085 50.7726 66.7419 50.5935 66.7393 50.4131V42.2455C66.7471 42.0479 66.7116 41.851 66.6355 41.6685C66.5594 41.486 66.4445 41.3223 66.2986 41.1887C66.1528 41.0551 65.9796 40.9549 65.7911 40.8949C65.6026 40.835 65.4033 40.8169 65.207 40.8417ZM8.17216 44.9681C3.66835 44.9681 0 48.6344 0 53.1358V70.8324C0 75.3337 3.66835 79 8.17216 79C12.202 79 15.5539 76.0785 16.2166 72.2361C29.4831 74.488 42.9286 77.6388 55.8431 77.6388C68.1175 77.6388 79.4745 71.0821 87.5954 63.6432C87.657 63.5916 87.714 63.5346 87.7656 63.4729C88.4543 62.5906 88.6774 61.4479 88.4041 60.4951C88.1307 59.5425 87.5001 58.8154 86.7441 58.283C85.2971 57.2645 83.2538 56.8907 81.3811 57.645V57.6027C81.2934 57.6259 81.255 57.6627 81.1683 57.6872H81.1257C74.5285 59.5062 70.7289 62.2378 67.4629 64.366C67.1223 64.5879 66.7739 64.7107 66.4414 64.9189C66.4222 64.8549 66.4197 64.8155 66.3988 64.7489C66.1469 63.9444 65.7308 63.0178 65.1219 62.1113C63.9041 60.2983 61.7179 58.5806 58.5672 58.5806C56.357 58.5806 54.0569 58.4594 52.4806 57.432C49.3194 55.3723 47.6189 52.7671 45.2023 50.4554C42.7857 48.1439 39.5664 46.3291 34.0507 46.3291C25.7902 46.3291 21.2889 50.4322 16.3443 52.7526C16.1365 48.4344 12.543 44.9681 8.17216 44.9681ZM8.17216 47.6906C11.214 47.6906 13.6203 50.0956 13.6203 53.1358V70.8324C13.6203 73.8726 11.214 76.2774 8.17216 76.2774C5.13035 76.2774 2.72405 73.8726 2.72405 70.8324V53.1358C2.72405 50.0956 5.13035 47.6906 8.17216 47.6906ZM34.0507 49.0518C39.0064 49.0518 41.2129 50.4304 43.3295 52.4551C45.4461 54.4796 47.3451 57.3113 50.9909 59.6869C53.43 61.2762 56.3138 61.3034 58.5672 61.3034C60.7629 61.3034 61.9972 62.3495 62.8661 63.6432C63.3005 64.2899 63.6199 64.9743 63.8025 65.5574C63.9215 65.9374 63.9043 66.0883 63.9302 66.2805C61.7741 67.3221 59.4261 68.1098 55.8431 68.1098C49.8751 68.1098 45.6731 64.6301 39.9244 62.7072C39.7534 62.6494 39.5727 62.626 39.3926 62.6384C39.2125 62.6508 39.0367 62.6987 38.8752 62.7794C38.7138 62.8601 38.5699 62.972 38.452 63.1086C38.3341 63.2452 38.2444 63.4038 38.1882 63.5752C38.1319 63.7467 38.1103 63.9275 38.1244 64.1074C38.1385 64.2873 38.1881 64.4625 38.2704 64.6231C38.3527 64.7836 38.466 64.9263 38.6038 65.0429C38.7416 65.1594 38.9011 65.2475 39.0732 65.3021C44.2113 67.0208 48.8583 70.8324 55.8431 70.8324C61.9467 70.8324 65.5353 68.8902 68.9526 66.6633C72.3699 64.4366 75.6917 61.9459 82.0621 60.2399C82.1353 60.2178 82.2065 60.1895 82.275 60.1554C83.1166 59.7644 84.4219 59.9696 85.1693 60.4958C85.5429 60.7589 85.758 61.088 85.8077 61.2615C85.8494 61.4066 85.8166 61.5239 85.68 61.7294C77.9183 68.8115 67.0991 74.9168 55.8431 74.9168C43.2667 74.9168 29.8417 71.7453 16.3443 69.4717V55.6888C22.4022 53.2209 26.1936 49.0518 34.0507 49.0518Z" fill="black"/>
</g>
</svg>
