<svg width="84" height="92" viewBox="0 0 84 92" fill="none" xmlns="http://www.w3.org/2000/svg">
<path id="Vector" d="M83.5885 27.1309C84.4241 23.9548 83.9773 20.644 82.3374 17.8048C79.1336 12.2658 72.2569 10.1859 66.5906 12.8543L61.3359 3.77538C60.326 2.02791 58.6906 0.778978 56.7335 0.2579C54.7765 -0.263202 52.7433 0.0108269 51.0007 1.03058C47.7657 2.92181 46.4475 6.87952 47.7344 10.2892L26.6308 30.7828L7.85051 41.7665C4.30264 43.8419 2.6718 48.0198 3.47161 52.0538C0.0444103 54.4437 -1.0369 59.1337 1.0945 62.8219C2.59585 65.4185 5.31257 66.865 8.10526 66.865C9.28037 66.865 10.469 66.6044 11.5816 66.0698C13.4315 67.678 15.755 68.5541 18.083 68.5541C19.6469 68.5541 21.2153 68.1588 22.6407 67.3232L29.1958 63.4868L54.3429 91.6361C54.5574 91.8742 54.8523 92 55.1562 92C55.3438 92 55.5315 91.9506 55.7058 91.8518L60.5003 89.0486C61.023 88.7431 61.1973 88.0692 60.8979 87.5436L42.6312 55.9811L69.5754 48.0207C71.0365 49.7952 73.1948 50.7699 75.4066 50.7699C76.698 50.7699 78.0027 50.4375 79.1958 49.7412C82.7972 47.6343 84.026 42.9713 81.9303 39.3504L78.8428 34.0136C81.1842 32.3515 82.8553 29.9436 83.5925 27.1269L83.5885 27.1309ZM28.6683 31.8523L48.7893 12.3156L68.3337 46.0931L41.4924 54.022L28.6637 31.8529L28.6683 31.8523ZM6.5776 64.466C5.05394 64.0617 3.77599 63.0824 2.98065 61.7123C1.54187 59.228 2.10487 56.1148 4.17372 54.2776C4.33011 54.628 4.50437 54.9739 4.70098 55.3153L9.3614 63.37C9.55801 63.7114 9.77249 64.0348 10.0004 64.3448C8.90563 64.7222 7.72148 64.7715 6.5776 64.466ZM21.5373 65.4184C18.052 67.4578 13.4363 66.0428 11.2513 62.2648L6.59087 54.2101C4.40582 50.432 5.46039 45.7017 8.94567 43.6621L26.8944 33.1636L39.4863 54.9199L28.8606 61.1327H28.8561L21.5371 65.4139L21.5373 65.4184ZM55.3712 89.5012L31.1219 62.3581L40.5858 56.8236L58.4544 87.6996L55.3757 89.501L55.3712 89.5012ZM78.0876 47.839C75.5272 49.335 72.2341 48.459 70.7461 45.8894L50.1608 10.3098C48.6728 7.73565 49.5442 4.42483 52.1 2.92887C52.9266 2.44819 53.8426 2.20112 54.781 2.20112C55.2457 2.20112 55.7105 2.26401 56.1752 2.3853C57.5694 2.75367 58.7267 3.64321 59.446 4.88306L65.2236 14.8695V14.8739V14.8784L76.4167 34.2219V34.2264L80.027 40.4663C81.515 43.0404 80.6437 46.3512 78.0878 47.8472L78.0876 47.839ZM67.6899 14.7619C72.3057 12.6954 77.8419 14.4204 80.4385 18.9128C81.7879 21.2442 82.1499 23.9621 81.4662 26.5676C80.8764 28.8137 79.5627 30.7454 77.7218 32.1066L67.6861 14.7619H67.6899ZM30.1922 55.1256L22.1224 41.1861L24.0125 40.081L32.0822 54.0205L30.1922 55.1256ZM26.0322 57.556L24.1422 58.6611L16.0724 44.7216L17.9625 43.6165L26.0322 57.556ZM11.9167 47.1518L19.982 61.0913L18.0919 62.1964L10.0266 48.2569L11.9167 47.1518Z" fill="black"/>
</svg>
