<svg width="80" height="89" viewBox="0 0 80 89" fill="none" xmlns="http://www.w3.org/2000/svg">
<path id="Vector" d="M0.00215824 75.747L0.302193 86.8333C0.311624 87.1793 0.455886 87.5079 0.704281 87.7492C0.952677 87.9906 1.28559 88.1256 1.63219 88.1256H77.85C78.1966 88.1256 78.5295 87.9906 78.7779 87.7492C79.0263 87.5079 79.1706 87.1793 79.18 86.8333L79.4788 75.7787C79.4839 75.662 79.9139 64.0569 66.1684 60.6403C59.8723 59.3423 53.4661 58.6502 47.0378 58.5737C54.0392 54.4728 58.9391 45.2575 58.9391 34.5517C58.9391 34.1505 58.9159 33.7576 58.8962 33.3634C59.9105 32.0782 62.5138 27.6053 61.1575 16.6581C60.7067 14.1017 58.7424 9.61705 54.4305 9.33935C54.0957 7.88782 53.3501 6.56295 52.2826 5.52248C52.1306 5.3889 37.0084 -7.69656 19.4235 9.86312C19.2714 10.0147 19.1584 10.2009 19.0942 10.4057C19.0299 10.6105 19.0164 10.8277 19.0547 11.0389C19.093 11.2501 19.1821 11.4488 19.3142 11.618C19.4463 11.7873 19.6175 11.9221 19.8132 12.0107L20.6912 12.4089C18.5482 14.2835 15.7947 18.2286 16.9765 25.7025L18.3611 33.3106C18.4279 33.6513 18.6269 33.9517 18.9147 34.1464C18.9128 34.2821 18.904 34.4155 18.904 34.5517C18.904 45.2997 23.8412 54.549 30.8871 58.6254C24.9793 58.7497 19.096 59.4243 13.3138 60.6403C-0.431647 64.0569 -0.00173866 75.662 0.00215824 75.747ZM39.2488 61.5839L43.4013 64.2988L41.8751 68.5292H36.6239L35.0978 64.2988L39.2488 61.5839ZM36.9115 71.1853H41.6018L42.7801 85.4697H35.7332L36.9115 71.1853ZM76.82 75.6757L76.5551 85.4697H45.4502L44.1735 69.992L46.2599 64.2126C46.3616 63.9318 46.3654 63.6249 46.2707 63.3416C46.1759 63.0583 45.9881 62.8153 45.7378 62.6519L43.4596 61.1623C48.8439 61.2256 58.9227 61.5755 65.5267 63.2172C77.0954 66.093 76.8382 75.2607 76.82 75.6757ZM58.5287 17.051C59.5664 25.4379 58.0637 29.5185 57.2182 31.0683C52.9923 28.4191 52.2504 22.4031 52.2325 18.6169C52.2722 18.569 52.3079 18.5274 52.3593 18.462C52.6262 18.0549 52.8691 17.6325 53.0866 17.1969C53.927 15.5938 54.4478 13.8431 54.6199 12.0418C57.6532 12.5979 58.5008 16.9099 58.5287 17.051ZM23.9136 13.4146C24.1541 13.3167 24.3607 13.1505 24.5077 12.9367C24.6548 12.7229 24.7358 12.4707 24.741 12.2114C24.7461 11.952 24.675 11.6969 24.5365 11.4774C24.398 11.258 24.1981 11.0838 23.9616 10.9765L22.7044 10.4059C37.8331 -3.36175 49.9863 7.04114 50.4564 7.4529C51.3622 8.33545 51.9055 9.52374 51.98 10.7852C52.0168 12.6 51.5819 14.394 50.7175 15.9909C50.4409 16.5329 50.2149 16.8857 50.2214 16.8857L50.2227 16.8844C50.1682 16.9499 50.111 17.0108 50.0538 17.0724L49.9084 17.2326C42.0362 26.0766 25.4333 19.9969 25.2644 19.934C25.0727 19.8623 24.867 19.8357 24.6633 19.8563C24.4596 19.8769 24.2634 19.9442 24.09 20.0528C23.9166 20.1615 23.7706 20.3086 23.6634 20.4828C23.5562 20.657 23.4907 20.8535 23.472 21.0571C22.8966 27.3761 21.564 29.9685 20.6484 31.0229L19.599 25.2583C18.1351 15.9947 23.6863 13.5119 23.9136 13.4146ZM21.564 34.5517C21.564 34.2768 21.5777 34.0065 21.5859 33.7341C23.2642 32.5947 25.1063 29.744 25.9436 22.9564C30.2162 24.2528 41.8742 26.9491 49.674 21.0136C50.0365 25.361 51.5057 30.8526 56.2422 33.5549C56.2585 33.8857 56.2791 34.215 56.2791 34.5517C56.2791 47.5905 48.4926 58.1983 38.9215 58.1983C29.3505 58.1983 21.564 47.5905 21.564 34.5517ZM35.0186 61.1755L32.7613 62.6518C32.5109 62.8152 32.3232 63.0582 32.2284 63.3415C32.1336 63.6248 32.1374 63.9317 32.2391 64.2125L34.3371 70.0241L33.0632 85.4696H2.92712L2.66085 75.6439C2.65565 75.5492 2.31147 66.1118 13.9555 63.2172C20.1652 61.6729 29.4554 61.2703 35.0186 61.1755Z" fill="black"/>
</svg>
