<svg width="251" height="33" viewBox="0 0 251 33" fill="none" xmlns="http://www.w3.org/2000/svg">
<path d="M17.272 15.456C17.888 15.456 18.4893 15.4413 19.076 15.412C19.6627 15.3533 20.1613 15.104 20.572 14.664C21.1 14.0773 21.364 13.1827 21.364 11.98C21.364 11.5693 21.32 11.144 21.232 10.704C21.144 10.264 20.8947 9.88267 20.484 9.56C20.0733 9.208 19.5893 9.00267 19.032 8.944C18.504 8.88533 17.9467 8.856 17.36 8.856H11.86C11.4493 8.856 11.1267 8.92933 10.892 9.076C10.6867 9.19333 10.5253 9.34 10.408 9.516C10.2907 9.692 10.2173 9.88267 10.188 10.088C10.1587 10.2933 10.144 10.484 10.144 10.66V15.456H17.272ZM0.2 32V7.008C0.2 6.36267 0.273333 5.644 0.42 4.852C0.566667 4.06 0.904 3.37066 1.432 2.784C1.75467 2.40266 2.25333 2.05066 2.928 1.728C3.60267 1.376 4.468 1.2 5.524 1.2H22.552C23.784 1.2 24.9573 1.332 26.072 1.596C27.1867 1.83067 28.1693 2.41733 29.02 3.356C29.7533 4.11867 30.3107 5.16 30.692 6.48C31.1027 7.77067 31.308 9.53067 31.308 11.76C31.308 12.288 31.2787 12.992 31.22 13.872C31.1907 14.7227 31.0733 15.6173 30.868 16.556C30.692 17.4947 30.4133 18.404 30.032 19.284C29.68 20.164 29.1813 20.8827 28.536 21.44C27.8027 22.056 26.9227 22.496 25.896 22.76C24.8987 22.9947 23.9747 23.112 23.124 23.112H10.144V32H0.2ZM58.2408 32L58.6808 13.916C58.6808 13.6227 58.6661 13.3587 58.6368 13.124C58.6075 12.8893 58.4755 12.772 58.2408 12.772C58.0941 12.772 57.9475 12.904 57.8008 13.168C57.6541 13.4027 57.4195 13.7693 57.0968 14.268L48.3408 29.228C48.1355 29.58 47.8715 29.9467 47.5488 30.328C47.2261 30.7093 46.8008 31.0467 46.2728 31.34C45.7741 31.6333 45.1435 31.868 44.3808 32.044C43.6475 32.2493 42.7528 32.352 41.6968 32.352C40.1715 32.352 38.9541 32.1467 38.0448 31.736C37.1648 31.296 36.4755 30.7387 35.9768 30.064C35.5075 29.36 35.1995 28.568 35.0528 27.688C34.9061 26.808 34.8328 25.8987 34.8328 24.96V1.2H44.9528L44.5128 18.844V19.328C44.5128 19.5333 44.5275 19.768 44.5568 20.032C44.6155 20.2667 44.7768 20.384 45.0408 20.384C45.1875 20.384 45.3195 20.296 45.4368 20.12C45.5541 19.9147 45.7155 19.636 45.9208 19.284L54.4128 4.456C54.8821 3.60533 55.4101 2.94533 55.9968 2.476C56.5835 1.97733 57.1701 1.61067 57.7568 1.376C58.3728 1.14133 58.9595 0.994665 59.5168 0.935999C60.1035 0.877333 60.6168 0.848 61.0568 0.848C62.8168 0.848 64.1808 1.12667 65.1488 1.684C66.1461 2.24133 66.8795 2.916 67.3488 3.708C67.8181 4.5 68.0968 5.336 68.1848 6.216C68.3021 7.096 68.3608 7.844 68.3608 8.46V32H58.2408ZM81.1342 32V8.856H70.1342V1.2H102.078V8.856H91.0782V32H81.1342ZM131.121 28.216C130.945 28.7733 130.739 29.3013 130.505 29.8C130.27 30.2987 129.933 30.7387 129.493 31.12C129.082 31.5013 128.525 31.7947 127.821 32C127.146 32.2347 126.266 32.352 125.181 32.352C124.095 32.352 123.201 32.2347 122.497 32C121.822 31.7947 121.265 31.5013 120.825 31.12C120.414 30.7387 120.091 30.2987 119.857 29.8C119.622 29.3013 119.417 28.7733 119.241 28.216L114.489 13.344C114.401 13.0507 114.298 12.8013 114.181 12.596C114.093 12.3613 113.99 12.244 113.873 12.244C113.667 12.244 113.55 12.376 113.521 12.64C113.521 12.904 113.521 13.1093 113.521 13.256L113.829 32H103.841V6.26C103.841 4.91066 104.163 3.86933 104.809 3.136C105.454 2.40266 106.187 1.87466 107.009 1.552C107.859 1.2 108.695 0.994665 109.517 0.935999C110.367 0.877333 110.998 0.848 111.409 0.848C112.054 0.848 112.743 0.891999 113.477 0.979998C114.239 1.068 114.987 1.288 115.721 1.64C116.454 1.96267 117.129 2.46133 117.745 3.136C118.361 3.81067 118.874 4.74933 119.285 5.952L124.257 20.912C124.286 21 124.33 21.1173 124.389 21.264C124.447 21.4107 124.521 21.572 124.609 21.748C124.697 21.8947 124.785 22.0267 124.873 22.144C124.99 22.2613 125.093 22.32 125.181 22.32C125.269 22.32 125.357 22.2613 125.445 22.144C125.562 22.0267 125.665 21.8947 125.753 21.748C125.841 21.572 125.914 21.4107 125.973 21.264C126.031 21.1173 126.075 21 126.105 20.912L131.077 5.952C131.458 4.74933 131.957 3.81067 132.573 3.136C133.218 2.46133 133.907 1.96267 134.641 1.64C135.374 1.288 136.107 1.068 136.841 0.979998C137.603 0.891999 138.322 0.848 138.997 0.848C140.757 0.848 142.135 1.03867 143.133 1.42C144.13 1.80133 144.878 2.27066 145.377 2.828C145.905 3.38533 146.227 3.98666 146.345 4.632C146.491 5.248 146.565 5.79067 146.565 6.26V32H136.533L136.885 13.256C136.885 12.8453 136.841 12.5813 136.753 12.464C136.665 12.3173 136.577 12.244 136.489 12.244C136.401 12.244 136.313 12.332 136.225 12.508C136.137 12.6547 136.019 12.9333 135.873 13.344L131.121 28.216Z" fill="white"/>
<path d="M163.165 18.624H169.501L166.729 10.836C166.671 10.7187 166.597 10.5867 166.509 10.44C166.451 10.264 166.392 10.176 166.333 10.176C166.275 10.176 166.201 10.264 166.113 10.44C166.055 10.5867 165.996 10.7187 165.937 10.836L163.165 18.624ZM159.293 4.588C159.528 4.03067 159.807 3.51733 160.129 3.048C160.452 2.57867 160.877 2.18267 161.405 1.86C161.933 1.53733 162.579 1.288 163.341 1.112C164.133 0.936 165.131 0.848 166.333 0.848C167.067 0.848 167.771 0.891999 168.445 0.979998C169.149 1.03867 169.795 1.2 170.381 1.464C170.997 1.69867 171.555 2.06533 172.053 2.564C172.581 3.06267 173.021 3.73733 173.373 4.588L184.769 32H174.297L171.877 25.664H160.789L158.369 32H147.897L159.293 4.588ZM203.155 15.456C203.771 15.456 204.372 15.4413 204.959 15.412C205.545 15.3533 206.044 15.104 206.455 14.664C206.983 14.0773 207.247 13.1827 207.247 11.98C207.247 11.5693 207.203 11.144 207.115 10.704C207.027 10.264 206.777 9.88267 206.367 9.56C205.956 9.208 205.472 9.00267 204.915 8.944C204.387 8.88533 203.829 8.856 203.243 8.856H197.743C197.332 8.856 197.009 8.92933 196.775 9.076C196.569 9.19333 196.408 9.34 196.291 9.516C196.173 9.692 196.1 9.88267 196.071 10.088C196.041 10.2933 196.027 10.484 196.027 10.66V15.456H203.155ZM186.083 32V7.008C186.083 6.36267 186.156 5.644 186.303 4.852C186.449 4.06 186.787 3.37066 187.315 2.784C187.637 2.40266 188.136 2.05066 188.811 1.728C189.485 1.376 190.351 1.2 191.407 1.2H208.435C209.667 1.2 210.84 1.332 211.955 1.596C213.069 1.83067 214.052 2.41733 214.903 3.356C215.636 4.11867 216.193 5.16 216.575 6.48C216.985 7.77067 217.191 9.53067 217.191 11.76C217.191 12.288 217.161 12.992 217.103 13.872C217.073 14.7227 216.956 15.6173 216.751 16.556C216.575 17.4947 216.296 18.404 215.915 19.284C215.563 20.164 215.064 20.8827 214.419 21.44C213.685 22.056 212.805 22.496 211.779 22.76C210.781 22.9947 209.857 23.112 209.007 23.112H196.027V32H186.083ZM229.076 32V8.856H218.076V1.2H250.02V8.856H239.02V32H229.076Z" fill="#C22929"/>
</svg>
