<svg width="0" height="0" class="hidden">
  <symbol fill="none" xmlns="http://www.w3.org/2000/svg" viewBox="0 0 9 16" id="ic_arr_hor">
    <path d="M0.292893 7.29289C-0.097631 7.68342 -0.097631 8.31658 0.292893 8.70711L6.65685 15.0711C7.04738 15.4616 7.68054 15.4616 8.07107 15.0711C8.46159 14.6805 8.46159 14.0474 8.07107 13.6569L2.41421 8L8.07107 2.34315C8.46159 1.95262 8.46159 1.31946 8.07107 0.928932C7.68054 0.538408 7.04738 0.538408 6.65685 0.928932L0.292893 7.29289ZM2 7H1L1 9H2L2 7Z" fill="currentColor"></path>
  </symbol>
  <symbol fill="none" xmlns="http://www.w3.org/2000/svg" viewBox="0 0 12 7" id="ic_arr_ver">
    <path d="M5.50503 6.49497C5.77839 6.76834 6.22161 6.76834 6.49497 6.49497L10.9497 2.0402C11.2231 1.76684 11.2231 1.32362 10.9497 1.05025C10.6764 0.776886 10.2332 0.776886 9.9598 1.05025L6 5.01005L2.0402 1.05025C1.76684 0.776885 1.32362 0.776885 1.05025 1.05025C0.776886 1.32362 0.776886 1.76684 1.05025 2.0402L5.50503 6.49497ZM5.3 5L5.3 6L6.7 6L6.7 5L5.3 5Z" fill="currentColor"></path>
  </symbol>
  <symbol fill="none" xmlns="http://www.w3.org/2000/svg" viewBox="0 0 30 31" id="ic_email">
    <path d="M22.6764 9.00004H8.32313C7.94178 9.00004 7.5993 9.16511 7.35645 9.42504L15.1638 14.7973C15.4531 14.9965 15.8411 14.9965 16.1305 14.8001L23.7775 9.59764C23.5432 9.2381 23.1372 9 22.6761 9L22.6764 9.00004Z" fill="currentColor"></path>
    <path d="M15.6507 16.5983C15.1574 16.5983 14.6622 16.4503 14.2325 16.1543L7 11.1777V20.3038C7 21.0323 7.59291 21.6271 8.32337 21.6271H22.6766C23.4052 21.6271 24 21.0342 24 20.3038V11.4395L17.0597 16.1609C16.6318 16.4531 16.1412 16.5983 15.6507 16.5983Z" fill="currentColor"></path>
  </symbol>
  <symbol fill="none" xmlns="http://www.w3.org/2000/svg" viewBox="0 0 18 21" id="ic_location">
    <path d="M8.58046 4.92188C6.84823 4.92188 5.4375 6.33255 5.4375 8.06483C5.4375 9.79712 6.84817 11.2078 8.58046 11.2078C10.3127 11.2078 11.7234 9.79712 11.7234 8.06483C11.7234 6.33255 10.3127 4.92188 8.58046 4.92188ZM8.58046 10.0992C7.45775 10.0992 6.54618 9.18757 6.54618 8.06489C6.54618 6.94218 7.45778 6.03061 8.58046 6.03061C9.70314 6.03061 10.6147 6.94221 10.6147 8.06489C10.6147 9.1876 9.70314 10.0992 8.58046 10.0992Z" fill="currentColor"></path>
    <path d="M14.3527 2.23501C12.5458 0.588314 10.2009 -0.190109 7.74864 0.0394049C4.01783 0.391256 0.903139 3.18569 0.171168 6.83529C-1.04031 12.884 4.49204 18.1835 6.92576 20.1843C7.37506 20.5524 7.9207 20.7354 8.46636 20.7354C9.02933 20.7354 9.59123 20.5416 10.0492 20.1529C14.7664 16.1557 17.1577 12.2625 17.1577 8.58158C17.1609 6.17161 16.138 3.85999 14.3527 2.23501ZM9.3337 19.3084C8.84003 19.7274 8.12222 19.735 7.62963 19.3279C5.35173 17.4571 0.168008 12.5126 1.26056 7.05514C1.895 3.88197 4.60806 1.4513 7.85717 1.14393C8.10402 1.12228 8.3476 1.11037 8.5912 1.11037C10.4588 1.11037 12.2192 1.78702 13.6102 3.05588C15.1628 4.46982 16.0548 6.48459 16.0548 8.58266C16.0527 11.9227 13.7909 15.5311 9.3337 19.3084Z" fill="currentColor"></path>
  </symbol>
  <symbol fill="none" xmlns="http://www.w3.org/2000/svg" viewBox="0 0 32 21" id="ic_menu">
    <rect width="32" height="3" fill="currentColor"></rect>
    <rect y="9" width="32" height="3" fill="currentColor"></rect>
    <rect y="18" width="32" height="3" fill="currentColor"></rect>
  </symbol>
  <symbol fill="none" xmlns="http://www.w3.org/2000/svg" viewBox="0 0 30 33" id="ic_phone">
    <path d="M22.2627 20.2234L21.1557 18.4165V18.4174C20.5431 17.4205 19.2327 17.1041 18.2286 17.7123L17.3142 18.2649C17.0434 18.4324 16.6928 18.3962 16.4619 18.1776C14.998 16.7471 13.9149 14.978 13.3085 13.0303C13.2224 12.7262 13.352 12.4028 13.6255 12.2406L14.5399 11.6888L14.539 11.6879C15.544 11.0798 15.8618 9.7788 15.2492 8.7819L14.1413 6.97501C13.5287 5.97813 12.2183 5.66259 11.2142 6.26988L9.44842 7.33197C8.81276 7.71098 8.42392 8.39319 8.42481 9.12916C8.42392 12.2563 9.28774 15.3237 10.9212 17.9971C12.5627 20.6493 14.8957 22.8114 17.6737 24.255C17.9853 24.4172 18.3324 24.5027 18.6849 24.5036C19.0737 24.5036 19.4554 24.3969 19.7875 24.196L21.5515 23.1294C22.5556 22.5213 22.8734 21.2203 22.2617 20.2234L22.2627 20.2234Z" fill="currentColor"></path>
  </symbol>
  <symbol fill="none" xmlns="http://www.w3.org/2000/svg" viewBox="0 0 30 32" id="ic_tg">
    <path fill-rule="evenodd" clip-rule="evenodd" d="M22.0138 6.72324L9.11903 20.5086L9.10273 22.7274C9.09882 23.3031 9.42752 23.8218 9.93035 24.0325C10.4325 24.2432 11.0045 24.102 11.369 23.6772L13.2369 21.5029L17.9951 23.1821C18.3532 23.308 18.7451 23.2628 19.0693 23.0583C19.394 22.8539 19.619 22.509 19.6875 22.1141L22.184 7.70156C22.2434 7.35807 22.1788 7.01041 22.0138 6.72324ZM8.95796 19.6958L21.5449 6.2393C21.1575 6.00498 20.6801 5.99664 20.2823 6.2254C16.9966 8.11527 7.87207 13.3649 4.59881 15.2478C4.15859 15.5009 3.89318 16.0009 3.91535 16.5342C3.93753 17.0668 4.24404 17.5389 4.70382 17.7496L8.95796 19.6958Z" fill="currentColor"></path>
  </symbol>
  <symbol fill="none" xmlns="http://www.w3.org/2000/svg" viewBox="0 0 17 17" id="ic_time">
    <path d="M8.5 0C3.81282 0 0 3.81282 0 8.5C0 13.1872 3.81282 17 8.5 17C13.1872 17 17 13.1872 17 8.5C17 3.81282 13.1872 0 8.5 0ZM8.5 15.7313C4.51261 15.7313 1.26866 12.4874 1.26866 8.5C1.26866 4.51261 4.51261 1.26866 8.5 1.26866C12.4874 1.26866 15.7313 4.51261 15.7313 8.5C15.7313 12.4874 12.4874 15.7313 8.5 15.7313ZM9.13433 8.23739L11.7698 10.8729L10.8728 11.7699L7.86562 8.76266V4.31348H9.13428L9.13433 8.23739Z" fill="currentColor"></path>
  </symbol>
  <symbol fill="none" xmlns="http://www.w3.org/2000/svg" viewBox="0 0 30 31" id="ic_whatsapp">
    <path d="M10.6641 22.6681C11.9888 23.3893 13.4817 23.7675 15 23.7675C19.9617 23.7675 24 19.7814 24 14.8837C24 9.98609 19.9617 6 15 6C10.0383 6 6 9.98609 6 14.8837C6 16.4569 6.41984 17.9969 7.22079 19.3519L6.07542 24L10.6641 22.6681ZM11.142 10.7325C11.3326 10.5594 11.5802 10.4669 11.839 10.4669H12.1131C12.4759 10.4669 12.7989 10.6912 12.9223 11.0262L13.4827 12.5511C13.5347 12.6949 13.5092 12.8548 13.4124 12.9755L12.9691 13.5217C12.7938 13.735 12.747 14.0267 12.8489 14.2811C13.3859 15.6149 14.9827 16.5524 15.8173 16.9648C16.12 17.1137 16.4827 17.0573 16.7222 16.823L17.2124 16.3392C17.3296 16.2235 17.5048 16.1822 17.6638 16.2305L19.1505 16.6993C19.5082 16.8129 19.7508 17.1398 19.7508 17.51V17.8831C19.7508 18.1557 19.6407 18.4182 19.445 18.6114C17.997 20.0226 15.5941 18.9875 14.0372 18.0451C12.9153 17.3651 11.937 16.4719 11.2094 15.3877C9.44852 12.7643 10.5184 11.2938 11.142 10.7325Z" fill="currentColor"></path>
  </symbol>
</svg>